0
SECTION
2
ENTITIES
0
3DFACE
8
0
10
20.3576
20
10.3728
30
111.77
11
0
21
0
31
103.711
12
0
22
0
32
103.711
13
20.2489
23
8.64359
33
108.81
62
109
0
LINE
8
0
10
0
20
0
30
103.711
11
6.56048
21
10.3728
31
97.4085
62
0
0
3DFACE
8
0
10
30.4683
20
-11.4139
30
92.1443
11
20.3576
21
10.3728
31
111.77
12
20.2489
22
8.64359
32
108.81
13
30.286
23
-14.3104
33
100.356
62
102
0
LINE
8
0
10
6.56048
20
10.3728
30
97.4085
11
7.35789
21
-11.4139
31
89.7409
62
0
0
3DFACE
8
0
10
30.588
20
0.622329
30
94.4245
11
30.4683
21
-11.4139
31
92.1443
12
30.286
22
-14.3104
32
100.356
13
30.4594
23
-1.42098
33
91.4404
62
93
0
LINE
8
0
10
7.35789
20
-11.4139
30
89.7409
11
14.2849
21
0.622329
31
81.2008
62
0
0
3DFACE
8
0
10
20.9367
20
14.447
30
26.5789
11
30.588
21
0.622329
31
94.4245
12
30.4594
22
-1.42098
32
91.4404
13
20.7474
23
11.4382
33
22.3989
62
84
0
LINE
8
0
10
14.2849
20
0.622329
30
81.2008
11
-3.06975
21
14.447
31
72.0355
62
0
0
3DFACE
8
0
10
33.7035
20
-14.9193
30
79.9936
11
20.9367
21
14.447
31
26.5789
12
20.7474
22
11.4382
32
22.3989
13
33.4561
23
-18.8514
33
91.8442
62
74
0
LINE
8
0
10
-3.06975
20
14.447
30
72.0355
11
2.33
21
-14.9193
31
62.4042
62
0
0
3DFACE
8
0
10
39.722
20
10.9344
30
76.8762
11
33.7035
21
-14.9193
31
79.9936
12
33.4561
22
-18.8514
32
91.8442
13
39.4936
23
7.30397
33
67.2797
62
64
0
LINE
8
0
10
2.33
20
-14.9193
30
62.4042
11
10.756
21
10.9344
31
52.4231
62
0
0
3DFACE
8
0
10
27.815
20
4.26714
30
47.4189
11
39.722
21
10.9344
31
76.8762
12
39.4936
22
7.30397
32
67.2797
13
27.7132
23
2.64967
33
48.4308
62
54
0
LINE
8
0
10
10.756
20
10.9344
30
52.4231
11
14.9096
21
4.26714
31
42.1838
62
0
0
3DFACE
8
0
10
23.557
20
13.2425
30
22.0756
11
27.815
21
4.26714
31
47.4189
12
27.7132
22
2.64967
32
48.4308
13
23.4366
23
11.3297
33
20.5047
62
44
0
LINE
8
0
10
14.9096
20
4.26714
30
42.1838
11
8.29514
21
13.2425
31
31.7619
62
0
0
3DFACE
8
0
10
17.0111
20
-5.82672
30
-47.3411
11
23.557
21
13.2425
31
22.0756
12
23.4366
22
11.3297
32
20.5047
13
16.762
23
-9.78612
33
-39.6369
62
33
0
LINE
8
0
10
8.29514
20
13.2425
30
31.7619
11
-14.5799
21
-5.82672
31
21.2221
62
0
0
3DFACE
8
0
10
47.0198
20
7.41593
30
99.5786
11
17.0111
21
-5.82672
31
-47.3411
12
16.762
22
-9.78612
32
-39.6369
13
46.7585
23
3.26293
33
93.6899
62
22
0
LINE
8
0
10
-14.5799
20
-5.82672
30
21.2221
11
13.8841
21
7.41593
31
10.6198
62
0
0
3DFACE
8
0
10
29.1033
20
-15.7507
30
-37.4178
11
47.0198
21
7.41593
31
99.5786
12
46.7585
22
3.26293
32
93.6899
13
28.8751
23
-19.3787
33
-29.2085
62
19
0
LINE
8
0
10
13.8841
20
7.41593
30
10.6198
11
0.156521
21
-15.7507
31
0
62
0
0
3DFACE
8
0
10
20.2489
20
12.1021
30
114.502
11
0
21
0
31
103.711
12
0
22
0
32
103.711
13
20.3576
23
10.3728
33
111.77
62
109
0
3DFACE
8
0
10
30.286
20
-8.51742
30
83.8952
11
20.2489
21
12.1021
31
114.502
12
20.3576
22
10.3728
32
111.77
13
30.4683
23
-11.4139
33
92.1443
62
102
0
3DFACE
8
0
10
30.4594
20
2.66564
30
97.2
11
30.286
21
-8.51742
31
83.8952
12
30.4683
22
-11.4139
32
92.1443
13
30.588
23
0.622329
33
94.4245
62
93
0
3DFACE
8
0
10
20.7474
20
17.4558
30
31.4757
11
30.4594
21
2.66564
31
97.2
12
30.588
22
0.622329
32
94.4245
13
20.9367
23
14.447
33
26.5789
62
84
0
3DFACE
8
0
10
33.4561
20
-10.9871
30
67.8657
11
20.7474
21
17.4558
31
31.4757
12
20.9367
22
14.447
32
26.5789
13
33.7035
23
-14.9193
33
79.9936
62
74
0
3DFACE
8
0
10
39.4936
20
14.5648
30
86.0871
11
33.4561
21
-10.9871
31
67.8657
12
33.7035
22
-14.9193
32
79.9936
13
39.722
23
10.9344
33
76.8762
62
64
0
3DFACE
8
0
10
27.7132
20
5.88461
30
46.3244
11
39.4936
21
14.5648
31
86.0871
12
39.722
22
10.9344
32
76.8762
13
27.815
23
4.26714
33
47.4189
62
54
0
3DFACE
8
0
10
23.4366
20
15.1553
30
23.7993
11
27.7132
21
5.88461
31
46.3244
12
27.815
22
4.26714
32
47.4189
13
23.557
23
13.2425
33
22.0756
62
44
0
3DFACE
8
0
10
16.762
20
-1.86733
30
-53.964
11
23.4366
21
15.1553
31
23.7993
12
23.557
22
13.2425
32
22.0756
13
17.0111
23
-5.82672
33
-47.3411
62
33
0
3DFACE
8
0
10
46.7585
20
11.5689
30
104.064
11
16.762
21
-1.86733
31
-53.964
12
17.0111
22
-5.82672
32
-47.3411
13
47.0198
23
7.41593
33
99.5786
62
22
0
3DFACE
8
0
10
28.8751
20
-12.1227
30
-45.0371
11
46.7585
21
11.5689
31
104.064
12
47.0198
22
7.41593
32
99.5786
13
29.1033
23
-15.7507
33
-37.4178
62
19
0
3DFACE
8
0
10
19.9242
20
13.804
30
116.965
11
0
21
0
31
103.711
12
0
22
0
32
103.711
13
20.2489
23
12.1021
33
114.502
62
109
0
3DFACE
8
0
10
29.7422
20
-5.6666
30
75.7383
11
19.9242
21
13.804
31
116.965
12
20.2489
22
12.1021
32
114.502
13
30.286
23
-8.51742
33
83.8952
62
102
0
3DFACE
8
0
10
30.0758
20
4.67673
30
99.7233
11
29.7422
21
-5.6666
31
75.7383
12
30.286
22
-8.51742
32
83.8952
13
30.4594
23
2.66564
33
97.2
62
93
0
3DFACE
8
0
10
20.1825
20
20.4171
30
37.0121
11
30.0758
21
4.67673
31
99.7233
12
30.4594
22
2.66564
32
97.2
13
20.7474
23
17.4558
33
31.4757
62
84
0
3DFACE
8
0
10
32.7178
20
-7.117
30
55.6516
11
20.1825
21
20.4171
31
37.0121
12
20.7474
22
17.4558
32
31.4757
13
33.4561
23
-10.9871
33
67.8657
62
74
0
3DFACE
8
0
10
38.812
20
18.1379
30
94.7671
11
32.7178
21
-7.117
31
55.6516
12
33.4561
22
-10.9871
32
67.8657
13
39.4936
23
14.5648
33
86.0871
62
64
0
3DFACE
8
0
10
27.4095
20
7.47657
30
45.1646
11
38.812
21
18.1379
31
94.7671
12
39.4936
22
14.5648
32
86.0871
13
27.7132
23
5.88461
33
46.3244
62
54
0
3DFACE
8
0
10
23.0775
20
17.038
30
25.6486
11
27.4095
21
7.47657
31
45.1646
12
27.7132
22
5.88461
32
46.3244
13
23.4366
23
15.1553
33
23.7993
62
44
0
3DFACE
8
0
10
16.0186
20
2.02963
30
-59.4012
11
23.0775
21
17.038
31
25.6486
12
23.4366
22
15.1553
32
23.7993
13
16.762
23
-1.86733
33
-53.964
62
33
0
3DFACE
8
0
10
45.9788
20
15.6564
30
107.076
11
16.0186
21
2.02963
31
-59.4012
12
16.762
22
-1.86733
32
-53.964
13
46.7585
23
11.5689
33
104.064
62
22
0
3DFACE
8
0
10
28.1939
20
-8.55189
30
-51.9461
11
45.9788
21
15.6564
31
107.076
12
46.7585
22
11.5689
32
104.064
13
28.8751
23
-12.1227
33
-45.0371
62
19
0
3DFACE
8
0
10
19.3888
20
15.4519
30
119.12
11
0
21
0
31
103.711
12
0
22
0
32
103.711
13
19.9242
23
13.804
33
116.965
62
109
0
3DFACE
8
0
10
28.8454
20
-2.90642
30
67.8022
11
19.3888
21
15.4519
31
119.12
12
19.9242
22
13.804
32
116.965
13
29.7422
23
-5.6666
33
75.7383
62
102
0
3DFACE
8
0
10
29.4431
20
6.62387
30
101.954
11
28.8454
21
-2.90642
31
67.8022
12
29.7422
22
-5.6666
32
75.7383
13
30.0758
23
4.67673
33
99.7233
62
93
0
3DFACE
8
0
10
19.2509
20
23.2843
30
43.1009
11
29.4431
21
6.62387
31
101.954
12
30.0758
22
4.67673
32
99.7233
13
20.1825
23
20.4171
33
37.0121
62
84
0
3DFACE
8
0
10
31.5003
20
-3.36992
30
43.544
11
19.2509
21
23.2843
31
43.1009
12
20.1825
22
20.4171
32
37.0121
13
32.7178
23
-7.117
33
55.6516
62
74
0
3DFACE
8
0
10
37.6879
20
21.5975
30
102.779
11
31.5003
21
-3.36992
31
43.544
12
32.7178
22
-7.117
32
55.6516
13
38.812
23
18.1379
33
94.7671
62
64
0
3DFACE
8
0
10
26.9087
20
9.01792
30
43.9578
11
37.6879
21
21.5975
31
102.779
12
38.812
22
18.1379
32
94.7671
13
27.4095
23
7.47657
33
45.1646
62
54
0
3DFACE
8
0
10
22.4852
20
18.8608
30
27.5943
11
26.9087
21
9.01792
31
43.9578
12
27.4095
22
7.47657
32
45.1646
13
23.0775
23
17.038
33
25.6486
62
44
0
3DFACE
8
0
10
14.7927
20
5.80269
30
-63.5669
11
22.4852
21
18.8608
31
27.5943
12
23.0775
22
17.038
32
25.6486
13
16.0186
23
2.02963
33
-59.4012
62
33
0
3DFACE
8
0
10
44.6929
20
19.614
30
108.567
11
14.7927
21
5.80269
31
-63.5669
12
16.0186
22
2.02963
32
-59.4012
13
45.9788
23
15.6564
33
107.076
62
22
0
3DFACE
8
0
10
27.0706
20
-5.09464
30
-58.0359
11
44.6929
21
19.614
31
108.567
12
45.9788
22
15.6564
32
107.076
13
28.1939
23
-8.55189
33
-51.9461
62
19
0
3DFACE
8
0
10
18.651
20
17.0197
30
120.932
11
0
21
0
31
103.711
12
0
22
0
32
103.711
13
19.3888
23
15.4519
33
119.12
62
109
0
3DFACE
8
0
10
27.6097
20
-0.280409
30
60.2121
11
18.651
21
17.0197
31
120.932
12
19.3888
22
15.4519
32
119.12
13
28.8454
23
-2.90642
33
67.8022
62
102
0
3DFACE
8
0
10
28.5714
20
8.47637
30
103.858
11
27.6097
21
-0.280409
31
60.2121
12
28.8454
22
-2.90642
32
67.8022
13
29.4431
23
6.62387
33
101.954
62
93
0
3DFACE
8
0
10
17.9673
20
26.0122
30
49.6461
11
28.5714
21
8.47637
31
103.858
12
29.4431
22
6.62387
32
101.954
13
19.2509
23
23.2843
33
43.1009
62
84
0
3DFACE
8
0
10
29.8228
20
0.195021
30
31.7338
11
17.9673
21
26.0122
31
49.6461
12
19.2509
22
23.2843
32
43.1009
13
31.5003
23
-3.36992
33
43.544
62
74
0
3DFACE
8
0
10
36.1391
20
24.8889
30
109.997
11
29.8228
21
0.195021
31
31.7338
12
31.5003
22
-3.36992
32
43.544
13
37.6879
23
21.5975
33
102.779
62
64
0
3DFACE
8
0
10
26.2187
20
10.4843
30
42.7231
11
36.1391
21
24.8889
31
109.997
12
37.6879
22
21.5975
32
102.779
13
26.9087
23
9.01792
33
43.9578
62
54
0
3DFACE
8
0
10
21.6692
20
20.5949
30
29.6057
11
26.2187
21
10.4843
31
42.7231
12
26.9087
22
9.01792
32
43.9578
13
22.4852
23
18.8608
33
27.5943
62
44
0
3DFACE
8
0
10
13.1035
20
9.39234
30
-66.3955
11
21.6692
21
20.5949
31
29.6057
12
22.4852
22
18.8608
32
27.5943
13
14.7927
23
5.80269
33
-63.5669
62
33
0
3DFACE
8
0
10
42.9211
20
23.3792
30
108.514
11
13.1035
21
9.39234
31
-66.3955
12
14.7927
22
5.80269
32
-63.5669
13
44.6929
23
19.614
33
108.567
62
22
0
3DFACE
8
0
10
25.5228
20
-1.80545
30
-63.2105
11
42.9211
21
23.3792
31
108.514
12
44.6929
22
19.614
32
108.567
13
27.0706
23
-5.09464
33
-58.0359
62
19
0
3DFACE
8
0
10
17.7226
20
18.4826
30
122.373
11
0
21
0
31
103.711
12
0
22
0
32
103.711
13
18.651
23
17.0197
33
120.932
62
109
0
3DFACE
8
0
10
26.0546
20
2.17002
30
53.0876
11
17.7226
21
18.4826
31
122.373
12
18.651
22
17.0197
32
120.932
13
27.6097
23
-0.280409
33
60.2121
62
102
0
3DFACE
8
0
10
27.4744
20
10.205
30
105.405
11
26.0546
21
2.17002
31
53.0876
12
27.6097
22
-0.280409
32
60.2121
13
28.5714
23
8.47637
33
103.858
62
93
0
3DFACE
8
0
10
16.3519
20
28.5576
30
56.5443
11
27.4744
21
10.205
31
105.405
12
28.5714
22
8.47637
32
103.858
13
17.9673
23
26.0122
33
49.6461
62
84
0
3DFACE
8
0
10
27.7117
20
3.5216
30
20.4073
11
16.3519
21
28.5576
31
56.5443
12
17.9673
22
26.0122
32
49.6461
13
29.8228
23
0.195021
33
31.7338
62
74
0
3DFACE
8
0
10
34.19
20
27.9602
30
116.307
11
27.7117
21
3.5216
31
20.4073
12
29.8228
22
0.195021
32
31.7338
13
36.1391
23
24.8889
33
109.997
62
64
0
3DFACE
8
0
10
25.3503
20
11.8527
30
41.4798
11
34.19
21
27.9602
31
116.307
12
36.1391
22
24.8889
32
109.997
13
26.2187
23
10.4843
33
42.7231
62
54
0
3DFACE
8
0
10
20.6422
20
22.2132
30
31.6511
11
25.3503
21
11.8527
31
41.4798
12
26.2187
22
10.4843
32
42.7231
13
21.6692
23
20.5949
33
29.6057
62
44
0
3DFACE
8
0
10
10.9778
20
12.742
30
-67.8422
11
20.6422
21
22.2132
31
31.6511
12
21.6692
22
20.5949
32
29.6057
13
13.1035
23
9.39234
33
-66.3955
62
33
0
3DFACE
8
0
10
40.6914
20
26.8926
30
106.916
11
10.9778
21
12.742
31
-67.8422
12
13.1035
22
9.39234
32
-66.3955
13
42.9211
23
23.3792
33
108.514
62
22
0
3DFACE
8
0
10
23.575
20
1.26383
30
-67.3881
11
40.6914
21
26.8926
31
106.916
12
42.9211
22
23.3792
32
108.514
13
25.5228
23
-1.80545
33
-63.2105
62
19
0
3DFACE
8
0
10
16.6182
20
19.8176
30
123.421
11
0
21
0
31
103.711
12
0
22
0
32
103.711
13
17.7226
23
18.4826
33
122.373
62
109
0
3DFACE
8
0
10
24.2046
20
4.40622
30
46.5412
11
16.6182
21
19.8176
31
123.421
12
17.7226
22
18.4826
32
122.373
13
26.0546
23
2.17002
33
53.0876
62
102
0
3DFACE
8
0
10
26.1693
20
11.7825
30
106.569
11
24.2046
21
4.40622
31
46.5412
12
26.0546
22
2.17002
32
53.0876
13
27.4744
23
10.205
33
105.405
62
93
0
3DFACE
8
0
10
14.4302
20
30.8805
30
63.6868
11
26.1693
21
11.7825
31
106.569
12
27.4744
22
10.205
32
105.405
13
16.3519
23
28.5576
33
56.5443
62
84
0
3DFACE
8
0
10
25.2003
20
6.55736
30
9.74315
11
14.4302
21
30.8805
31
63.6868
12
16.3519
22
28.5576
32
56.5443
13
27.7117
23
3.5216
33
20.4073
62
74
0
3DFACE
8
0
10
31.8713
20
30.763
30
121.61
11
25.2003
21
6.55736
31
9.74315
12
27.7117
22
3.5216
32
20.4073
13
34.19
23
27.9602
33
116.307
62
64
0
3DFACE
8
0
10
24.3172
20
13.1015
30
40.2476
11
31.8713
21
30.763
31
121.61
12
34.19
22
27.9602
32
116.307
13
25.3503
23
11.8527
33
41.4798
62
54
0
3DFACE
8
0
10
19.4205
20
23.6899
30
33.6983
11
24.3172
21
13.1015
31
40.2476
12
25.3503
22
11.8527
32
41.4798
13
20.6422
23
22.2132
33
31.6511
62
44
0
3DFACE
8
0
10
8.44895
20
15.7988
30
-67.8844
11
19.4205
21
23.6899
31
33.6983
12
20.6422
22
22.2132
32
31.6511
13
10.9778
23
12.742
33
-67.8422
62
33
0
3DFACE
8
0
10
38.039
20
30.0989
30
103.8
11
8.44895
21
15.7988
31
-67.8844
12
10.9778
22
12.742
32
-67.8422
13
40.6914
23
26.8926
33
106.916
62
22
0
3DFACE
8
0
10
21.2578
20
4.06477
30
-70.5031
11
38.039
21
30.0989
31
103.8
12
40.6914
22
26.8926
32
106.916
13
23.575
23
1.26383
33
-67.3881
62
19
0
3DFACE
8
0
10
15.3551
20
21.0037
30
124.058
11
0
21
0
31
103.711
12
0
22
0
32
103.711
13
16.6182
23
19.8176
33
123.421
62
109
0
3DFACE
8
0
10
22.089
20
6.39293
30
40.6761
11
15.3551
21
21.0037
31
124.058
12
16.6182
22
19.8176
32
123.421
13
24.2046
23
4.40622
33
46.5412
62
102
0
3DFACE
8
0
10
24.6769
20
13.184
30
107.334
11
22.089
21
6.39293
31
40.6761
12
24.2046
22
4.40622
32
46.5412
13
26.1693
23
11.7825
33
106.569
62
93
0
3DFACE
8
0
10
12.2325
20
32.9443
30
70.961
11
24.6769
21
13.184
31
107.334
12
26.1693
22
11.7825
32
106.569
13
14.4302
23
30.8805
33
63.6868
62
84
0
3DFACE
8
0
10
22.3282
20
9.25441
30
-0.0905212
11
12.2325
21
32.9443
31
70.961
12
14.4302
22
30.8805
32
63.6868
13
25.2003
23
6.55736
33
9.74315
62
74
0
3DFACE
8
0
10
29.2196
20
33.2531
30
125.822
11
22.3282
21
9.25441
31
-0.0905212
12
25.2003
22
6.55736
32
9.74315
13
31.8713
23
30.763
33
121.61
62
64
0
3DFACE
8
0
10
23.1358
20
14.2109
30
39.046
11
29.2196
21
33.2531
31
125.822
12
31.8713
22
30.763
32
121.61
13
24.3172
23
13.1015
33
40.2476
62
54
0
3DFACE
8
0
10
18.0234
20
25.0019
30
35.7149
11
23.1358
21
14.2109
31
39.046
12
24.3172
22
13.1015
32
40.2476
13
19.4205
23
23.6899
33
33.6983
62
44
0
3DFACE
8
0
10
5.55696
20
18.5145
30
-66.5213
11
18.0234
21
25.0019
31
35.7149
12
19.4205
22
23.6899
32
33.6983
13
8.44895
23
15.7988
33
-67.8844
62
33
0
3DFACE
8
0
10
35.0056
20
32.9474
30
99.2138
11
5.55696
21
18.5145
31
-66.5213
12
8.44895
22
15.7988
32
-67.8844
13
38.039
23
30.0989
33
103.8
62
22
0
3DFACE
8
0
10
18.6079
20
6.55322
30
-72.5061
11
35.0056
21
32.9474
31
99.2138
12
38.039
22
30.0989
32
103.8
13
21.2578
23
4.06477
33
-70.5031
62
19
0
3DFACE
8
0
10
13.9534
20
22.0222
30
124.275
11
0
21
0
31
103.711
12
0
22
0
32
103.711
13
15.3551
23
21.0037
33
124.058
62
109
0
3DFACE
8
0
10
19.741
20
8.09882
30
35.5848
11
13.9534
21
22.0222
31
124.275
12
15.3551
22
21.0037
32
124.058
13
22.089
23
6.39293
33
40.6761
62
102
0
3DFACE
8
0
10
23.0205
20
14.3874
30
107.687
11
19.741
21
8.09882
31
35.5848
12
22.089
22
6.39293
32
40.6761
13
24.6769
23
13.184
33
107.334
62
93
0
3DFACE
8
0
10
9.79354
20
34.7163
30
78.2521
11
23.0205
21
14.3874
31
107.687
12
24.6769
22
13.184
32
107.334
13
12.2325
23
32.9443
33
70.961
62
84
0
3DFACE
8
0
10
19.1408
20
11.5702
30
-8.93861
11
9.79354
21
34.7163
31
78.2521
12
12.2325
22
32.9443
32
70.961
13
22.3282
23
9.25441
33
-0.0905212
62
74
0
3DFACE
8
0
10
26.2768
20
35.3912
30
128.875
11
19.1408
21
11.5702
31
-8.93861
12
22.3282
22
9.25441
32
-0.0905212
13
29.2196
23
33.2531
33
125.822
62
64
0
3DFACE
8
0
10
21.8247
20
15.1635
30
37.8939
11
26.2768
21
35.3912
31
128.875
12
29.2196
22
33.2531
32
125.822
13
23.1358
23
14.2109
33
39.046
62
54
0
3DFACE
8
0
10
16.4728
20
26.1285
30
37.6692
11
21.8247
21
15.1635
31
37.8939
12
23.1358
22
14.2109
32
39.046
13
18.0234
23
25.0019
33
35.7149
62
44
0
3DFACE
8
0
10
2.34741
20
20.8464
30
-63.7744
11
16.4728
21
26.1285
31
37.6692
12
18.0234
22
25.0019
32
35.7149
13
5.55696
23
18.5145
33
-66.5213
62
33
0
3DFACE
8
0
10
31.6391
20
35.3933
30
93.2308
11
2.34741
21
20.8464
31
-63.7744
12
5.55696
22
18.5145
32
-66.5213
13
35.0056
23
32.9474
33
99.2138
62
22
0
3DFACE
8
0
10
15.667
20
8.68991
30
-73.3657
11
31.6391
21
35.3933
31
93.2308
12
35.0056
22
32.9474
32
99.2138
13
18.6079
23
6.55322
33
-72.5061
62
19
0
3DFACE
8
0
10
12.435
20
22.8569
30
124.069
11
0
21
0
31
103.711
12
0
22
0
32
103.711
13
13.9534
23
22.0222
33
124.275
62
109
0
3DFACE
8
0
10
17.1978
20
9.49698
30
31.3476
11
12.435
21
22.8569
31
124.069
12
13.9534
22
22.0222
32
124.275
13
19.741
23
8.09882
33
35.5848
62
102
0
3DFACE
8
0
10
21.2264
20
15.3738
30
107.622
11
17.1978
21
9.49698
31
31.3476
12
19.741
22
8.09882
32
35.5848
13
23.0205
23
14.3874
33
107.687
62
93
0
3DFACE
8
0
10
7.15169
20
36.1687
30
85.4452
11
21.2264
21
15.3738
31
107.622
12
23.0205
22
14.3874
32
107.687
13
9.79354
23
34.7163
33
78.2521
62
84
0
3DFACE
8
0
10
15.6882
20
13.4683
30
-16.6616
11
7.15169
21
36.1687
31
85.4452
12
9.79354
22
34.7163
32
78.2521
13
19.1408
23
11.5702
33
-8.93861
62
74
0
3DFACE
8
0
10
23.0891
20
37.1436
30
130.724
11
15.6882
21
13.4683
31
-16.6616
12
19.1408
22
11.5702
32
-8.93861
13
26.2768
23
35.3912
33
128.875
62
64
0
3DFACE
8
0
10
20.4045
20
15.9443
30
36.8094
11
23.0891
21
37.1436
31
130.724
12
26.2768
22
35.3912
32
128.875
13
21.8247
23
15.1635
33
37.8939
62
54
0
3DFACE
8
0
10
14.7933
20
27.0518
30
39.5304
11
20.4045
21
15.9443
31
36.8094
12
21.8247
22
15.1635
32
37.8939
13
16.4728
23
26.1285
33
37.6692
62
44
0
3DFACE
8
0
10
-1.1291
20
22.7576
30
-59.6871
11
14.7933
21
27.0518
31
39.5304
12
16.4728
22
26.1285
32
37.6692
13
2.34741
23
20.8464
33
-63.7744
62
33
0
3DFACE
8
0
10
27.9926
20
37.398
30
85.9451
11
-1.1291
21
22.7576
31
-59.6871
12
2.34741
22
20.8464
32
-63.7744
13
31.6391
23
35.3933
33
93.2308
62
22
0
3DFACE
8
0
10
12.4815
20
10.4412
30
-73.0682
11
27.9926
21
37.398
31
85.9451
12
31.6391
22
35.3933
32
93.2308
13
15.667
23
8.68991
33
-73.3657
62
19
0
3DFACE
8
0
10
10.824
20
23.4947
30
123.441
11
0
21
0
31
103.711
12
0
22
0
32
103.711
13
12.435
23
22.8569
33
124.069
62
109
0
3DFACE
8
0
10
14.4994
20
10.5654
30
28.0312
11
10.824
21
23.4947
31
123.441
12
12.435
22
22.8569
32
124.069
13
17.1978
23
9.49698
33
31.3476
62
102
0
3DFACE
8
0
10
19.3229
20
16.1274
30
107.14
11
14.4994
21
10.5654
31
28.0312
12
17.1978
22
9.49698
32
31.3476
13
21.2264
23
15.3738
33
107.622
62
93
0
3DFACE
8
0
10
4.34864
20
37.2785
30
92.4268
11
19.3229
21
16.1274
31
107.14
12
21.2264
22
15.3738
32
107.622
13
7.15169
23
36.1687
33
85.4452
62
84
0
3DFACE
8
0
10
12.0249
20
14.9187
30
-23.1376
11
4.34864
21
37.2785
31
92.4268
12
7.15169
22
36.1687
32
85.4452
13
15.6882
23
13.4683
33
-16.6616
62
74
0
3DFACE
8
0
10
19.707
20
38.4827
30
131.337
11
12.0249
21
14.9187
31
-23.1376
12
15.6882
22
13.4683
32
-16.6616
13
23.0891
23
37.1436
33
130.724
62
64
0
3DFACE
8
0
10
18.8976
20
16.5409
30
35.8096
11
19.707
21
38.4827
31
131.337
12
23.0891
22
37.1436
32
130.724
13
20.4045
23
15.9443
33
36.8094
62
54
0
3DFACE
8
0
10
13.0113
20
27.7574
30
41.269
11
18.8976
21
16.5409
31
35.8096
12
20.4045
22
15.9443
32
36.8094
13
14.7933
23
27.0518
33
39.5304
62
44
0
3DFACE
8
0
10
-4.81773
20
24.2181
30
-54.3238
11
13.0113
21
27.7574
31
41.269
12
14.7933
22
27.0518
32
39.5304
13
-1.1291
23
22.7576
33
-59.6871
62
33
0
3DFACE
8
0
10
24.1236
20
38.9299
30
77.4713
11
-4.81773
21
24.2181
31
-54.3238
12
-1.1291
22
22.7576
32
-59.6871
13
27.9926
23
37.398
33
85.9451
62
22
0
3DFACE
8
0
10
9.10157
20
11.7794
30
-71.6184
11
24.1236
21
38.9299
31
77.4713
12
27.9926
22
37.398
32
85.9451
13
12.4815
23
10.4412
33
-73.0682
62
19
0
3DFACE
8
0
10
9.14581
20
23.9256
30
122.404
11
0
21
0
31
103.711
12
0
22
0
32
103.711
13
10.824
23
23.4947
33
123.441
62
109
0
3DFACE
8
0
10
11.6883
20
11.2871
30
25.6881
11
9.14581
21
23.9256
31
122.404
12
10.824
22
23.4947
32
123.441
13
14.4994
23
10.5654
33
28.0312
62
102
0
3DFACE
8
0
10
17.3398
20
16.6366
30
106.249
11
11.6883
21
11.2871
31
25.6881
12
14.4994
22
10.5654
32
28.0312
13
19.3229
23
16.1274
33
107.14
62
93
0
3DFACE
8
0
10
1.4286
20
38.0282
30
99.0868
11
17.3398
21
16.6366
31
106.249
12
19.3229
22
16.1274
32
107.14
13
4.34864
23
37.2785
33
92.4268
62
84
0
3DFACE
8
0
10
8.20881
20
15.8985
30
-28.2646
11
1.4286
21
38.0282
31
99.0868
12
4.34864
22
37.2785
32
92.4268
13
12.0249
23
14.9187
33
-23.1376
62
74
0
3DFACE
8
0
10
16.1837
20
39.3873
30
130.706
11
8.20881
21
15.8985
31
-28.2646
12
12.0249
22
14.9187
32
-23.1376
13
19.707
23
38.4827
33
131.337
62
64
0
3DFACE
8
0
10
17.3279
20
16.9439
30
34.9104
11
16.1837
21
39.3873
31
130.706
12
19.707
22
38.4827
32
131.337
13
18.8976
23
16.5409
33
35.8096
62
54
0
3DFACE
8
0
10
11.1549
20
28.234
30
42.8577
11
17.3279
21
16.9439
31
34.9104
12
18.8976
22
16.5409
32
35.8096
13
13.0113
23
27.7574
33
41.269
62
44
0
3DFACE
8
0
10
-8.66032
20
25.2047
30
-47.7691
11
11.1549
21
28.234
31
42.8577
12
13.0113
22
27.7574
32
41.269
13
-4.81773
23
24.2181
33
-54.3238
62
33
0
3DFACE
8
0
10
20.0931
20
39.9647
30
67.9433
11
-8.66032
21
25.2047
31
-47.7691
12
-4.81773
22
24.2181
32
-54.3238
13
24.1236
23
38.9299
33
77.4713
62
22
0
3DFACE
8
0
10
5.58061
20
12.6834
30
-69.0392
11
20.0931
21
39.9647
31
67.9433
12
24.1236
22
38.9299
32
77.4713
13
9.10157
23
11.7794
33
-71.6184
62
19
0
3DFACE
8
0
10
7.42681
20
24.1428
30
120.972
11
0
21
0
31
103.711
12
0
22
0
32
103.711
13
9.14581
23
23.9256
33
122.404
62
109
0
3DFACE
8
0
10
8.809
20
11.6509
30
24.3551
11
7.42681
21
24.1428
31
120.972
12
9.14581
22
23.9256
32
122.404
13
11.6883
23
11.2871
33
25.6881
62
102
0
3DFACE
8
0
10
15.3086
20
16.8932
30
104.963
11
8.809
21
11.6509
31
24.3551
12
11.6883
22
11.2871
32
25.6881
13
17.3398
23
16.6366
33
106.249
62
93
0
3DFACE
8
0
10
-1.56238
20
38.406
30
105.32
11
15.3086
21
16.8932
31
104.963
12
17.3398
22
16.6366
32
106.249
13
1.4286
23
38.0282
33
99.0868
62
84
0
3DFACE
8
0
10
4.29996
20
16.3923
30
-31.9618
11
-1.56238
21
38.406
31
105.32
12
1.4286
22
38.0282
32
99.0868
13
8.20881
23
15.8985
33
-28.2646
62
74
0
3DFACE
8
0
10
12.5748
20
39.8432
30
128.84
11
4.29996
21
16.3923
31
-31.9618
12
8.20881
22
15.8985
32
-28.2646
13
16.1837
23
39.3873
33
130.706
62
64
0
3DFACE
8
0
10
15.72
20
17.147
30
34.1259
11
12.5748
21
39.8432
31
128.84
12
16.1837
22
39.3873
32
130.706
13
17.3279
23
16.9439
33
34.9104
62
54
0
3DFACE
8
0
10
9.25344
20
28.4742
30
44.2714
11
15.72
21
17.147
31
34.1259
12
17.3279
22
16.9439
32
34.9104
13
11.1549
23
28.234
33
42.8577
62
44
0
3DFACE
8
0
10
-12.5963
20
25.7019
30
-40.1264
11
9.25344
21
28.4742
31
44.2714
12
11.1549
22
28.234
32
42.8577
13
-8.66032
23
25.2047
33
-47.7691
62
33
0
3DFACE
8
0
10
15.9647
20
40.4862
30
57.5113
11
-12.5963
21
25.7019
31
-40.1264
12
-8.66032
22
25.2047
32
-47.7691
13
20.0931
23
39.9647
33
67.9433
62
22
0
3DFACE
8
0
10
1.9741
20
13.139
30
-65.3712
11
15.9647
21
40.4862
31
57.5113
12
20.0931
22
39.9647
32
67.9433
13
5.58061
23
12.6834
33
-69.0392
62
19
0
3DFACE
8
0
10
5.69415
20
24.1428
30
119.168
11
0
21
0
31
103.711
12
0
22
0
32
103.711
13
7.42681
23
24.1428
33
120.972
62
109
0
3DFACE
8
0
10
5.90677
20
11.6509
30
24.0533
11
5.69415
21
24.1428
31
119.168
12
7.42681
22
24.1428
32
120.972
13
8.809
23
11.6509
33
24.3551
62
102
0
3DFACE
8
0
10
13.2613
20
16.8932
30
103.302
11
5.90677
21
11.6509
31
24.0533
12
8.809
22
11.6509
32
24.3551
13
15.3086
23
16.8932
33
104.963
62
93
0
3DFACE
8
0
10
-4.57713
20
38.406
30
111.029
11
13.2613
21
16.8932
31
103.302
12
15.3086
22
16.8932
32
104.963
13
-1.56238
23
38.406
33
105.32
62
84
0
3DFACE
8
0
10
0.360045
20
16.3923
30
-34.1707
11
-4.57713
21
38.406
31
111.029
12
-1.56238
22
38.406
32
105.32
13
4.29996
23
16.3923
33
-31.9618
62
74
0
3DFACE
8
0
10
8.93722
20
39.8432
30
125.769
11
0.360045
21
16.3923
31
-34.1707
12
4.29996
22
16.3923
32
-31.9618
13
12.5748
23
39.8432
33
128.84
62
64
0
3DFACE
8
0
10
14.0993
20
17.147
30
33.4685
11
8.93722
21
39.8432
31
125.769
12
12.5748
22
39.8432
32
128.84
13
15.72
23
17.147
33
34.1259
62
54
0
3DFACE
8
0
10
7.33684
20
28.4742
30
45.4878
11
14.0993
21
17.147
31
33.4685
12
15.72
22
17.147
32
34.1259
13
9.25344
23
28.4742
33
44.2714
62
44
0
3DFACE
8
0
10
-16.5635
20
25.7019
30
-31.5161
11
7.33684
21
28.4742
31
45.4878
12
9.25344
22
28.4742
32
44.2714
13
-12.5963
23
25.7019
33
-40.1264
62
33
0
3DFACE
8
0
10
11.8035
20
40.4862
30
46.3398
11
-16.5635
21
25.7019
31
-31.5161
12
-12.5963
22
25.7019
32
-40.1264
13
15.9647
23
40.4862
33
57.5113
62
22
0
3DFACE
8
0
10
-1.66106
20
13.139
30
-60.6722
11
11.8035
21
40.4862
31
46.3398
12
15.9647
22
40.4862
32
57.5113
13
1.9741
23
13.139
33
-65.3712
62
19
0
3DFACE
8
0
10
3.97515
20
23.9256
30
117.022
11
0
21
0
31
103.711
12
0
22
0
32
103.711
13
5.69415
23
24.1428
33
119.168
62
109
0
3DFACE
8
0
10
3.02743
20
11.2871
30
24.7874
11
3.97515
21
23.9256
31
117.022
12
5.69415
22
24.1428
32
119.168
13
5.90677
23
11.6509
33
24.0533
62
102
0
3DFACE
8
0
10
11.2301
20
16.6366
30
101.293
11
3.02743
21
11.2871
31
24.7874
12
5.90677
22
11.6509
32
24.0533
13
13.2613
23
16.8932
33
103.302
62
93
0
3DFACE
8
0
10
-7.56811
20
38.0282
30
116.122
11
11.2301
21
16.6366
31
101.293
12
13.2613
22
16.8932
32
103.302
13
-4.57713
23
38.406
33
111.029
62
84
0
3DFACE
8
0
10
-3.5488
20
15.8985
30
-34.8565
11
-7.56811
21
38.0282
31
116.122
12
-4.57713
22
38.406
32
111.029
13
0.360045
23
16.3923
33
-34.1707
62
74
0
3DFACE
8
0
10
5.32832
20
39.3873
30
121.542
11
-3.5488
21
15.8985
31
-34.8565
12
0.360045
22
16.3923
32
-34.1707
13
8.93722
23
39.8432
33
125.769
62
64
0
3DFACE
8
0
10
12.4914
20
16.9439
30
32.9485
11
5.32832
21
39.3873
31
121.542
12
8.93722
22
39.8432
32
125.769
13
14.0993
23
17.147
33
33.4685
62
54
0
3DFACE
8
0
10
5.43535
20
28.234
30
46.4877
11
12.4914
21
16.9439
31
32.9485
12
14.0993
22
17.147
32
33.4685
13
7.33684
23
28.4742
33
45.4878
62
44
0
3DFACE
8
0
10
-20.4994
20
25.2047
30
-22.0742
11
5.43535
21
28.234
31
46.4877
12
7.33684
22
28.4742
32
45.4878
13
-16.5635
23
25.7019
33
-31.5161
62
33
0
3DFACE
8
0
10
7.67507
20
39.9647
30
34.6049
11
-20.4994
21
25.2047
31
-22.0742
12
-16.5635
22
25.7019
32
-31.5161
13
11.8035
23
40.4862
33
46.3398
62
22
0
3DFACE
8
0
10
-5.26757
20
12.6834
30
-55.0164
11
7.67507
21
39.9647
31
34.6049
12
11.8035
22
40.4862
32
46.3398
13
-1.66106
23
13.139
33
-60.6722
62
19
0
3DFACE
8
0
10
2.29693
20
23.4947
30
114.566
11
0
21
0
31
103.711
12
0
22
0
32
103.711
13
3.97515
23
23.9256
33
117.022
62
109
0
3DFACE
8
0
10
0.216385
20
10.5654
30
26.5459
11
2.29693
21
23.4947
31
114.566
12
3.97515
22
23.9256
32
117.022
13
3.02743
23
11.2871
33
24.7874
62
102
0
3DFACE
8
0
10
9.24703
20
16.1274
30
98.967
11
0.216385
21
10.5654
31
26.5459
12
3.02743
22
11.2871
32
24.7874
13
11.2301
23
16.6366
33
101.293
62
93
0
3DFACE
8
0
10
-10.4882
20
37.2785
30
120.521
11
9.24703
21
16.1274
31
98.967
12
11.2301
22
16.6366
32
101.293
13
-7.56811
23
38.0282
33
116.122
62
84
0
3DFACE
8
0
10
-7.36494
20
14.9187
30
-34.0085
11
-10.4882
21
37.2785
31
120.521
12
-7.56811
22
38.0282
32
116.122
13
-3.5488
23
15.8985
33
-34.8565
62
74
0
3DFACE
8
0
10
1.80502
20
38.4827
30
116.224
11
-7.36494
21
14.9187
31
-34.0085
12
-3.5488
22
15.8985
32
-34.8565
13
5.32832
23
39.3873
33
121.542
62
64
0
3DFACE
8
0
10
10.9217
20
16.5409
30
32.5741
11
1.80502
21
38.4827
31
116.224
12
5.32832
22
39.3873
32
121.542
13
12.4914
23
16.9439
33
32.9485
62
54
0
3DFACE
8
0
10
3.57897
20
27.7574
30
47.2554
11
10.9217
21
16.5409
31
32.5741
12
12.4914
22
16.9439
32
32.9485
13
5.43535
23
28.234
33
46.4877
62
44
0
3DFACE
8
0
10
-24.342
20
24.2181
30
-11.9494
11
3.57897
21
27.7574
31
47.2554
12
5.43535
22
28.234
32
46.4877
13
-20.4994
23
25.2047
33
-22.0742
62
33
0
3DFACE
8
0
10
3.64458
20
38.9299
30
22.4918
11
-24.342
21
24.2181
31
-11.9494
12
-20.4994
22
25.2047
32
-22.0742
13
7.67507
23
39.9647
33
34.6049
62
22
0
3DFACE
8
0
10
-8.78853
20
11.7794
30
-48.4929
11
3.64458
21
38.9299
31
22.4918
12
7.67507
22
39.9647
32
34.6049
13
-5.26757
23
12.6834
33
-55.0164
62
19
0
3DFACE
8
0
10
0.685937
20
22.8569
30
111.839
11
0
21
0
31
103.711
12
0
22
0
32
103.711
13
2.29693
23
23.4947
33
114.566
62
109
0
3DFACE
8
0
10
-2.48204
20
9.49698
30
29.3009
11
0.685937
21
22.8569
31
111.839
12
2.29693
22
23.4947
32
114.566
13
0.216385
23
10.5654
33
26.5459
62
102
0
3DFACE
8
0
10
7.34345
20
15.3738
30
96.3608
11
-2.48204
21
9.49698
31
29.3009
12
0.216385
22
10.5654
32
26.5459
13
9.24703
23
16.1274
33
98.967
62
93
0
3DFACE
8
0
10
-13.2912
20
36.1687
30
124.154
11
7.34345
21
15.3738
31
96.3608
12
9.24703
22
16.1274
32
98.967
13
-10.4882
23
37.2785
33
120.521
62
84
0
3DFACE
8
0
10
-11.0282
20
13.4683
30
-31.64
11
-13.2912
21
36.1687
31
124.154
12
-10.4882
22
37.2785
32
120.521
13
-7.36494
23
14.9187
33
-34.0085
62
74
0
3DFACE
8
0
10
-1.57712
20
37.1436
30
109.9
11
-11.0282
21
13.4683
31
-31.64
12
-7.36494
22
14.9187
32
-34.0085
13
1.80502
23
38.4827
33
116.224
62
64
0
3DFACE
8
0
10
9.41479
20
15.9443
30
32.3514
11
-1.57712
21
37.1436
31
109.9
12
1.80502
22
38.4827
32
116.224
13
10.9217
23
16.5409
33
32.5741
62
54
0
3DFACE
8
0
10
1.79696
20
27.0518
30
47.7788
11
9.41479
21
15.9443
31
32.3514
12
10.9217
22
16.5409
32
32.5741
13
3.57897
23
27.7574
33
47.2554
62
44
0
3DFACE
8
0
10
-28.0307
20
22.7576
30
-1.30149
11
1.79696
21
27.0518
31
47.7788
12
3.57897
22
27.7574
32
47.2554
13
-24.342
23
24.2181
33
-11.9494
62
33
0
3DFACE
8
0
10
-0.224418
20
37.398
30
10.1914
11
-28.0307
21
22.7576
31
-1.30149
12
-24.342
22
24.2181
32
-11.9494
13
3.64458
23
38.9299
33
22.4918
62
22
0
3DFACE
8
0
10
-12.1684
20
10.4412
30
-41.2047
11
-0.224418
21
37.398
31
10.1914
12
3.64458
22
38.9299
32
22.4918
13
-8.78853
23
11.7794
33
-48.4929
62
19
0
3DFACE
8
0
10
-0.832406
20
22.0222
30
108.885
11
0
21
0
31
103.711
12
0
22
0
32
103.711
13
0.685937
23
22.8569
33
111.839
62
109
0
3DFACE
8
0
10
-5.02528
20
8.09882
30
33.0092
11
-0.832406
21
22.0222
31
108.885
12
0.685937
22
22.8569
32
111.839
13
-2.48204
23
9.49698
33
29.3009
62
102
0
3DFACE
8
0
10
5.54934
20
14.3874
30
93.5154
11
-5.02528
21
8.09882
31
33.0092
12
-2.48204
22
9.49698
32
29.3009
13
7.34345
23
15.3738
33
96.3608
62
93
0
3DFACE
8
0
10
-15.933
20
34.7163
30
126.966
11
5.54934
21
14.3874
31
93.5154
12
7.34345
22
15.3738
32
96.3608
13
-13.2912
23
36.1687
33
124.154
62
84
0
3DFACE
8
0
10
-14.4808
20
11.5702
30
-27.7884
11
-15.933
21
34.7163
31
126.966
12
-13.2912
22
36.1687
32
124.154
13
-11.0282
23
13.4683
33
-31.64
62
74
0
3DFACE
8
0
10
-4.76476
20
35.3912
30
102.67
11
-14.4808
21
11.5702
31
-27.7884
12
-11.0282
22
13.4683
32
-31.64
13
-1.57712
23
37.1436
33
109.9
62
64
0
3DFACE
8
0
10
7.99459
20
15.1635
30
32.2836
11
-4.76476
21
35.3912
31
102.67
12
-1.57712
22
37.1436
32
109.9
13
9.41479
23
15.9443
33
32.3514
62
54
0
3DFACE
8
0
10
0.117435
20
26.1285
30
48.0496
11
7.99459
21
15.1635
31
32.2836
12
9.41479
22
15.9443
32
32.3514
13
1.79696
23
27.0518
33
47.7788
62
44
0
3DFACE
8
0
10
-31.5072
20
20.8464
30
9.70162
11
0.117435
21
26.1285
31
48.0496
12
1.79696
22
27.0518
32
47.7788
13
-28.0307
23
22.7576
33
-1.30149
62
33
0
3DFACE
8
0
10
-3.87092
20
35.3933
30
-2.10216
11
-31.5072
21
20.8464
31
9.70162
12
-28.0307
22
22.7576
32
-1.30149
13
-0.224418
23
37.398
33
10.1914
62
22
0
3DFACE
8
0
10
-15.3539
20
8.68991
30
-33.2667
11
-3.87092
21
35.3933
31
-2.10216
12
-0.224418
22
37.398
32
10.1914
13
-12.1684
23
10.4412
33
-41.2047
62
19
0
3DFACE
8
0
10
-2.23416
20
21.0037
30
105.75
11
0
21
0
31
103.711
12
0
22
0
32
103.711
13
-0.832406
23
22.0222
33
108.885
62
109
0
3DFACE
8
0
10
-7.37323
20
6.39293
30
37.6122
11
-2.23416
21
21.0037
31
105.75
12
-0.832406
22
22.0222
32
108.885
13
-5.02528
23
8.09882
33
33.0092
62
102
0
3DFACE
8
0
10
3.893
20
13.184
30
90.4759
11
-7.37323
21
6.39293
31
37.6122
12
-5.02528
22
8.09882
32
33.0092
13
5.54934
23
14.3874
33
93.5154
62
93
0
3DFACE
8
0
10
-18.372
20
32.9443
30
128.911
11
3.893
21
13.184
31
90.4759
12
5.54934
22
14.3874
32
93.5154
13
-15.933
23
34.7163
33
126.966
62
84
0
3DFACE
8
0
10
-17.6682
20
9.25441
30
-22.5144
11
-18.372
21
32.9443
31
128.911
12
-15.933
22
34.7163
32
126.966
13
-14.4808
23
11.5702
33
-27.7884
62
74
0
3DFACE
8
0
10
-7.70762
20
33.2531
30
94.6475
11
-17.6682
21
9.25441
31
-22.5144
12
-14.4808
22
11.5702
32
-27.7884
13
-4.76476
23
35.3912
33
102.67
62
64
0
3DFACE
8
0
10
6.68344
20
14.2109
30
32.372
11
-7.70762
21
33.2531
31
94.6475
12
-4.76476
22
35.3912
32
102.67
13
7.99459
23
15.1635
33
32.2836
62
54
0
3DFACE
8
0
10
-1.43312
20
25.0019
30
48.0635
11
6.68344
21
14.2109
31
32.372
12
7.99459
22
15.1635
32
32.2836
13
0.117435
23
26.1285
33
48.0496
62
44
0
3DFACE
8
0
10
-34.7167
20
18.5145
30
20.8864
11
-1.43312
21
25.0019
31
48.0635
12
0.117435
22
26.1285
32
48.0496
13
-31.5072
23
20.8464
33
9.70162
62
33
0
3DFACE
8
0
10
-7.23741
20
32.9474
30
-14.1951
11
-34.7167
21
18.5145
31
20.8864
12
-31.5072
22
20.8464
32
9.70162
13
-3.87092
23
35.3933
33
-2.10216
62
22
0
3DFACE
8
0
10
-18.2949
20
6.55322
30
-24.804
11
-7.23741
21
32.9474
31
-14.1951
12
-3.87092
22
35.3933
32
-2.10216
13
-15.3539
23
8.68991
33
-33.2667
62
19
0
3DFACE
8
0
10
-3.49722
20
19.8176
30
102.483
11
0
21
0
31
103.711
12
0
22
0
32
103.711
13
-2.23416
23
21.0037
33
105.75
62
109
0
3DFACE
8
0
10
-9.48886
20
4.40622
30
43.0372
11
-3.49722
21
19.8176
31
102.483
12
-2.23416
22
21.0037
32
105.75
13
-7.37323
23
6.39293
33
37.6122
62
102
0
3DFACE
8
0
10
2.40054
20
11.7825
30
87.2901
11
-9.48886
21
4.40622
31
43.0372
12
-7.37323
22
6.39293
32
37.6122
13
3.893
23
13.184
33
90.4759
62
93
0
3DFACE
8
0
10
-20.5697
20
30.8805
30
129.96
11
2.40054
21
11.7825
31
87.2901
12
3.893
22
13.184
32
90.4759
13
-18.372
23
32.9443
33
128.911
62
84
0
3DFACE
8
0
10
-20.5403
20
6.55736
30
-15.9012
11
-20.5697
21
30.8805
31
129.96
12
-18.372
22
32.9443
32
128.911
13
-17.6682
23
9.25441
33
-22.5144
62
74
0
3DFACE
8
0
10
-10.3593
20
30.763
30
85.959
11
-20.5403
21
6.55736
31
-15.9012
12
-17.6682
22
9.25441
32
-22.5144
13
-7.70762
23
33.2531
33
94.6475
62
64
0
3DFACE
8
0
10
5.50202
20
13.1015
30
32.6152
11
-10.3593
21
30.763
31
85.959
12
-7.70762
22
33.2531
32
94.6475
13
6.68344
23
14.2109
33
32.372
62
54
0
3DFACE
8
0
10
-2.83026
20
23.6899
30
47.8203
11
5.50202
21
13.1015
31
32.6152
12
6.68344
22
14.2109
32
32.372
13
-1.43312
23
25.0019
33
48.0635
62
44
0
3DFACE
8
0
10
-37.6087
20
15.7988
30
32.0765
11
-2.83026
21
23.6899
31
47.8203
12
-1.43312
22
25.0019
32
48.0635
13
-34.7167
23
18.5145
33
20.8864
62
33
0
3DFACE
8
0
10
-10.2708
20
30.0989
30
-25.8967
11
-37.6087
21
15.7988
31
32.0765
12
-34.7167
22
18.5145
32
20.8864
13
-7.23741
23
32.9474
33
-14.1951
62
22
0
3DFACE
8
0
10
-20.9448
20
4.06477
30
-15.9502
11
-10.2708
21
30.0989
31
-25.8967
12
-7.23741
22
32.9474
32
-14.1951
13
-18.2949
23
6.55322
33
-24.804
62
19
0
3DFACE
8
0
10
-4.60166
20
18.4826
30
99.1366
11
0
21
0
31
103.711
12
0
22
0
32
103.711
13
-3.49722
23
19.8176
33
102.483
62
109
0
3DFACE
8
0
10
-11.3388
20
2.17002
30
49.1988
11
-4.60166
21
18.4826
31
99.1366
12
-3.49722
22
19.8176
32
102.483
13
-9.48886
23
4.40622
33
43.0372
62
102
0
3DFACE
8
0
10
1.09551
20
10.205
30
84.0082
11
-11.3388
21
2.17002
31
49.1988
12
-9.48886
22
4.40622
32
43.0372
13
2.40054
23
11.7825
33
87.2901
62
93
0
3DFACE
8
0
10
-22.4914
20
28.5576
30
130.095
11
1.09551
21
10.205
31
84.0082
12
2.40054
22
11.7825
32
87.2901
13
-20.5697
23
30.8805
33
129.96
62
84
0
3DFACE
8
0
10
-23.0517
20
3.5216
30
-8.05302
11
-22.4914
21
28.5576
31
130.095
12
-20.5697
22
30.8805
32
129.96
13
-20.5403
23
6.55736
33
-15.9012
62
74
0
3DFACE
8
0
10
-12.678
20
27.9602
30
76.7415
11
-23.0517
21
3.5216
31
-8.05302
12
-20.5403
22
6.55736
32
-15.9012
13
-10.3593
23
30.763
33
85.959
62
64
0
3DFACE
8
0
10
4.46897
20
11.8527
30
33.0092
11
-12.678
21
27.9602
31
76.7415
12
-10.3593
22
30.763
32
85.959
13
5.50202
23
13.1015
33
32.6152
62
54
0
3DFACE
8
0
10
-4.05195
20
22.2132
30
47.3239
11
4.46897
21
11.8527
31
33.0092
12
5.50202
22
13.1015
32
32.6152
13
-2.83026
23
23.6899
33
47.8203
62
44
0
3DFACE
8
0
10
-40.1375
20
12.742
30
43.0954
11
-4.05195
21
22.2132
31
47.3239
12
-2.83026
22
23.6899
32
47.8203
13
-37.6087
23
15.7988
33
32.0765
62
33
0
3DFACE
8
0
10
-12.9233
20
26.8926
30
-37.0225
11
-40.1375
21
12.742
31
43.0954
12
-37.6087
22
15.7988
32
32.0765
13
-10.2708
23
30.0989
33
-25.8967
62
22
0
3DFACE
8
0
10
-23.2619
20
1.26383
30
-6.84479
11
-12.9233
21
26.8926
31
-37.0225
12
-10.2708
22
30.0989
32
-25.8967
13
-20.9448
23
4.06477
33
-15.9502
62
19
0
3DFACE
8
0
10
-5.53006
20
17.0197
30
95.7626
11
0
21
0
31
103.711
12
0
22
0
32
103.711
13
-4.60166
23
18.4826
33
99.1366
62
109
0
3DFACE
8
0
10
-12.8939
20
-0.280409
30
55.9998
11
-5.53006
21
17.0197
31
95.7626
12
-4.60166
22
18.4826
32
99.1366
13
-11.3388
23
2.17002
33
49.1988
62
102
0
3DFACE
8
0
10
-0.00151437
20
8.47637
30
80.6821
11
-12.8939
21
-0.280409
31
55.9998
12
-11.3388
22
2.17002
32
49.1988
13
1.09551
23
10.205
33
84.0082
62
93
0
3DFACE
8
0
10
-24.1068
20
26.0122
30
129.314
11
-0.00151437
21
8.47637
31
80.6821
12
1.09551
22
10.205
32
84.0082
13
-22.4914
23
28.5576
33
130.095
62
84
0
3DFACE
8
0
10
-25.1628
20
0.195021
30
0.906282
11
-24.1068
21
26.0122
31
129.314
12
-22.4914
22
28.5576
32
130.095
13
-23.0517
23
3.5216
33
-8.05302
62
74
0
3DFACE
8
0
10
-14.6271
20
24.8889
30
67.1406
11
-25.1628
21
0.195021
31
0.906282
12
-23.0517
22
3.5216
32
-8.05302
13
-12.678
23
27.9602
33
76.7415
62
64
0
3DFACE
8
0
10
3.60057
20
10.4843
30
33.548
11
-14.6271
21
24.8889
31
67.1406
12
-12.678
22
27.9602
32
76.7415
13
4.46897
23
11.8527
33
33.0092
62
54
0
3DFACE
8
0
10
-5.07891
20
20.5949
30
46.5821
11
3.60057
21
10.4843
31
33.548
12
4.46897
22
11.8527
32
33.0092
13
-4.05195
23
22.2132
33
47.3239
62
44
0
3DFACE
8
0
10
-42.2632
20
9.39234
30
53.7694
11
-5.07891
21
20.5949
31
46.5821
12
-4.05195
22
22.2132
32
47.3239
13
-40.1375
23
12.742
33
43.0954
62
33
0
3DFACE
8
0
10
-15.153
20
23.3792
30
-47.3969
11
-42.2632
21
9.39234
31
53.7694
12
-40.1375
22
12.742
32
43.0954
13
-12.9233
23
26.8926
33
-37.0225
62
22
0
3DFACE
8
0
10
-25.2097
20
-1.80545
30
2.36855
11
-15.153
21
23.3792
31
-47.3969
12
-12.9233
22
26.8926
32
-37.0225
13
-23.2619
23
1.26383
33
-6.84479
62
19
0
3DFACE
8
0
10
-6.26779
20
15.4519
30
92.4147
11
0
21
0
31
103.711
12
0
22
0
32
103.711
13
-5.53006
23
17.0197
33
95.7626
62
109
0
3DFACE
8
0
10
-14.1296
20
-2.90642
30
63.3329
11
-6.26779
21
15.4519
31
92.4147
12
-5.53006
22
17.0197
32
95.7626
13
-12.8939
23
-0.280409
33
55.9998
62
102
0
3DFACE
8
0
10
-0.873234
20
6.62387
30
77.3642
11
-14.1296
21
-2.90642
31
63.3329
12
-12.8939
22
-0.280409
32
55.9998
13
-0.00151437
23
8.47637
33
80.6821
62
93
0
3DFACE
8
0
10
-25.3904
20
23.2843
30
127.63
11
-0.873234
21
6.62387
31
77.3642
12
-0.00151437
22
8.47637
32
80.6821
13
-24.1068
23
26.0122
33
129.314
62
84
0
3DFACE
8
0
10
-26.8403
20
-3.36992
30
10.8354
11
-25.3904
21
23.2843
31
127.63
12
-24.1068
22
26.0122
32
129.314
13
-25.1628
23
0.195021
33
0.906282
62
74
0
3DFACE
8
0
10
-16.1759
20
21.5975
30
57.3075
11
-26.8403
21
-3.36992
31
10.8354
12
-25.1628
22
0.195021
32
0.906282
13
-14.6271
23
24.8889
33
67.1406
62
64
0
3DFACE
8
0
10
2.91053
20
9.01792
30
34.2229
11
-16.1759
21
21.5975
31
57.3075
12
-14.6271
22
24.8889
32
67.1406
13
3.60057
23
10.4843
33
33.548
62
54
0
3DFACE
8
0
10
-5.89496
20
18.8608
30
45.6065
11
2.91053
21
9.01792
31
34.2229
12
3.60057
22
10.4843
32
33.548
13
-5.07891
23
20.5949
33
46.5821
62
44
0
3DFACE
8
0
10
-43.9524
20
5.80269
30
63.93
11
-5.89496
21
18.8608
31
45.6065
12
-5.07891
22
20.5949
32
46.5821
13
-42.2632
23
9.39234
33
53.7694
62
33
0
3DFACE
8
0
10
-16.9247
20
19.614
30
-56.8563
11
-43.9524
21
5.80269
31
63.93
12
-42.2632
22
9.39234
32
53.7694
13
-15.153
23
23.3792
33
-47.3969
62
22
0
3DFACE
8
0
10
-26.7575
20
-5.09464
30
11.5445
11
-16.9247
21
19.614
31
-56.8563
12
-15.153
22
23.3792
32
-47.3969
13
-25.2097
23
-1.80545
33
2.36855
62
19
0
3DFACE
8
0
10
-6.80322
20
13.804
30
89.1454
11
0
21
0
31
103.711
12
0
22
0
32
103.711
13
-6.26779
23
15.4519
33
92.4147
62
109
0
3DFACE
8
0
10
-15.0264
20
-5.6666
30
71.0825
11
-6.80322
21
13.804
31
89.1454
12
-6.26779
22
15.4519
32
92.4147
13
-14.1296
23
-2.90642
33
63.3329
62
102
0
3DFACE
8
0
10
-1.5059
20
4.67673
30
74.1067
11
-15.0264
21
-5.6666
31
71.0825
12
-14.1296
22
-2.90642
32
63.3329
13
-0.873234
23
6.62387
33
77.3642
62
93
0
3DFACE
8
0
10
-26.322
20
20.4171
30
125.069
11
-1.5059
21
4.67673
31
74.1067
12
-0.873234
22
6.62387
32
77.3642
13
-25.3904
23
23.2843
33
127.63
62
84
0
3DFACE
8
0
10
-28.0578
20
-7.117
30
21.5779
11
-26.322
21
20.4171
31
125.069
12
-25.3904
22
23.2843
32
127.63
13
-26.8403
23
-3.36992
33
10.8354
62
74
0
3DFACE
8
0
10
-17.3
20
18.1379
30
47.3974
11
-28.0578
21
-7.117
31
21.5779
12
-26.8403
22
-3.36992
32
10.8354
13
-16.1759
23
21.5975
33
57.3075
62
64
0
3DFACE
8
0
10
2.40971
20
7.47657
30
35.0234
11
-17.3
21
18.1379
31
47.3974
12
-16.1759
22
21.5975
32
57.3075
13
2.91053
23
9.01792
33
34.2229
62
54
0
3DFACE
8
0
10
-6.48722
20
17.038
30
44.4126
11
2.40971
21
7.47657
31
35.0234
12
2.91053
22
9.01792
32
34.2229
13
-5.89496
23
18.8608
33
45.6065
62
44
0
3DFACE
8
0
10
-45.1784
20
2.02963
30
73.4172
11
-6.48722
21
17.038
31
44.4126
12
-5.89496
22
18.8608
32
45.6065
13
-43.9524
23
5.80269
33
63.93
62
33
0
3DFACE
8
0
10
-18.2106
20
15.6564
30
-65.2516
11
-45.1784
21
2.02963
31
73.4172
12
-43.9524
22
5.80269
32
63.93
13
-16.9247
23
19.614
33
-56.8563
62
22
0
3DFACE
8
0
10
-27.8808
20
-8.55189
30
20.5385
11
-18.2106
21
15.6564
31
-65.2516
12
-16.9247
22
19.614
32
-56.8563
13
-26.7575
23
-5.09464
33
11.5445
62
19
0
3DFACE
8
0
10
-7.12788
20
12.1021
30
86.0065
11
0
21
0
31
103.711
12
0
22
0
32
103.711
13
-6.80322
23
13.804
33
89.1454
62
109
0
3DFACE
8
0
10
-15.5703
20
-8.51742
30
79.1263
11
-7.12788
21
12.1021
31
86.0065
12
-6.80322
22
13.804
32
89.1454
13
-15.0264
23
-5.6666
33
71.0825
62
102
0
3DFACE
8
0
10
-1.88954
20
2.66564
30
70.9612
11
-15.5703
21
-8.51742
31
79.1263
12
-15.0264
22
-5.6666
32
71.0825
13
-1.5059
23
4.67673
33
74.1067
62
93
0
3DFACE
8
0
10
-26.8869
20
17.4558
30
121.672
11
-1.88954
21
2.66564
31
70.9612
12
-1.5059
22
4.67673
32
74.1067
13
-26.322
23
20.4171
33
125.069
62
84
0
3DFACE
8
0
10
-28.7961
20
-10.9871
30
32.9642
11
-26.8869
21
17.4558
31
121.672
12
-26.322
22
20.4171
32
125.069
13
-28.0578
23
-7.117
33
21.5779
62
74
0
3DFACE
8
0
10
-17.9816
20
14.5648
30
37.5666
11
-28.7961
21
-10.9871
31
32.9642
12
-28.0578
22
-7.117
32
21.5779
13
-17.3
23
18.1379
33
47.3974
62
64
0
3DFACE
8
0
10
2.10603
20
5.88461
30
35.9368
11
-17.9816
21
14.5648
31
37.5666
12
-17.3
22
18.1379
32
47.3974
13
2.40971
23
7.47657
33
35.0234
62
54
0
3DFACE
8
0
10
-6.84636
20
15.1553
30
43.0192
11
2.10603
21
5.88461
31
35.9368
12
2.40971
22
7.47657
32
35.0234
13
-6.48722
23
17.038
33
44.4126
62
44
0
3DFACE
8
0
10
-45.9217
20
-1.86733
30
82.0811
11
-6.84636
21
15.1553
31
43.0192
12
-6.48722
22
17.038
32
44.4126
13
-45.1784
23
2.02963
33
73.4172
62
33
0
3DFACE
8
0
10
-18.9903
20
11.5689
30
-72.4503
11
-45.9217
21
-1.86733
31
82.0811
12
-45.1784
22
2.02963
32
73.4172
13
-18.2106
23
15.6564
33
-65.2516
62
22
0
3DFACE
8
0
10
-28.562
20
-12.1227
30
29.2085
11
-18.9903
21
11.5689
31
-72.4503
12
-18.2106
22
15.6564
32
-65.2516
13
-27.8808
23
-8.55189
33
20.5385
62
19
0
3DFACE
8
0
10
-7.23668
20
10.3728
30
83.0474
11
0
21
0
31
103.711
12
0
22
0
32
103.711
13
-7.12788
23
12.1021
33
86.0065
62
109
0
3DFACE
8
0
10
-15.7525
20
-11.4139
30
87.3375
11
-7.23668
21
10.3728
31
83.0474
12
-7.12788
22
12.1021
32
86.0065
13
-15.5703
23
-8.51742
33
79.1263
62
102
0
3DFACE
8
0
10
-2.01809
20
0.622329
30
67.9771
11
-15.7525
21
-11.4139
31
87.3375
12
-15.5703
22
-8.51742
32
79.1263
13
-1.88954
23
2.66564
33
70.9612
62
93
0
3DFACE
8
0
10
-27.0762
20
14.447
30
117.492
11
-2.01809
21
0.622329
31
67.9771
12
-1.88954
22
2.66564
32
70.9612
13
-26.8869
23
17.4558
33
121.672
62
84
0
3DFACE
8
0
10
-29.0435
20
-14.9193
30
44.8147
11
-27.0762
21
14.447
31
117.492
12
-26.8869
22
17.4558
32
121.672
13
-28.7961
23
-10.9871
33
32.9642
62
74
0
3DFACE
8
0
10
-18.21
20
10.9344
30
27.97
11
-29.0435
21
-14.9193
31
44.8147
12
-28.7961
22
-10.9871
32
32.9642
13
-17.9816
23
14.5648
33
37.5666
62
64
0
3DFACE
8
0
10
2.00427
20
4.26714
30
36.9487
11
-18.21
21
10.9344
31
27.97
12
-17.9816
22
14.5648
32
37.5666
13
2.10603
23
5.88461
33
35.9368
62
54
0
3DFACE
8
0
10
-6.9667
20
13.2425
30
41.4482
11
2.00427
21
4.26714
31
36.9487
12
2.10603
22
5.88461
32
35.9368
13
-6.84636
23
15.1553
33
43.0192
62
44
0
3DFACE
8
0
10
-46.1708
20
-5.82672
30
89.7853
11
-6.9667
21
13.2425
31
41.4482
12
-6.84636
22
15.1553
32
43.0192
13
-45.9217
23
-1.86733
33
82.0811
62
33
0
3DFACE
8
0
10
-19.2516
20
7.41593
30
-78.339
11
-46.1708
21
-5.82672
31
89.7853
12
-45.9217
22
-1.86733
32
82.0811
13
-18.9903
23
11.5689
33
-72.4503
62
22
0
3DFACE
8
0
10
-28.7903
20
-15.7507
30
37.4178
11
-19.2516
21
7.41593
31
-78.339
12
-18.9903
22
11.5689
32
-72.4503
13
-28.562
23
-12.1227
33
29.2085
62
19
0
3DFACE
8
0
10
-7.12788
20
8.64359
30
80.3147
11
0
21
0
31
103.711
12
0
22
0
32
103.711
13
-7.23668
23
10.3728
33
83.0474
62
109
0
3DFACE
8
0
10
-15.5703
20
-14.3104
30
95.5866
11
-7.12788
21
8.64359
31
80.3147
12
-7.23668
22
10.3728
32
83.0474
13
-15.7525
23
-11.4139
33
87.3375
62
102
0
3DFACE
8
0
10
-1.88954
20
-1.42098
30
65.2016
11
-15.5703
21
-14.3104
31
95.5866
12
-15.7525
22
-11.4139
32
87.3375
13
-2.01809
23
0.622329
33
67.9771
62
93
0
3DFACE
8
0
10
-26.8869
20
11.4382
30
112.595
11
-1.88954
21
-1.42098
31
65.2016
12
-2.01809
22
0.622329
32
67.9771
13
-27.0762
23
14.447
33
117.492
62
84
0
3DFACE
8
0
10
-28.7961
20
-18.8514
30
56.9427
11
-26.8869
21
11.4382
31
112.595
12
-27.0762
22
14.447
32
117.492
13
-29.0435
23
-14.9193
33
44.8147
62
74
0
3DFACE
8
0
10
-17.9816
20
7.30397
30
18.7591
11
-28.7961
21
-18.8514
31
56.9427
12
-29.0435
22
-14.9193
32
44.8147
13
-18.21
23
10.9344
33
27.97
62
64
0
3DFACE
8
0
10
2.10603
20
2.64967
30
38.0432
11
-17.9816
21
7.30397
31
18.7591
12
-18.21
22
10.9344
32
27.97
13
2.00427
23
4.26714
33
36.9487
62
54
0
3DFACE
8
0
10
-6.84636
20
11.3297
30
39.7245
11
2.10603
21
2.64967
31
38.0432
12
2.00427
22
4.26714
32
36.9487
13
-6.9667
23
13.2425
33
41.4482
62
44
0
3DFACE
8
0
10
-45.9217
20
-9.78612
30
96.4083
11
-6.84636
21
11.3297
31
39.7245
12
-6.9667
22
13.2425
32
41.4482
13
-46.1708
23
-5.82672
33
89.7853
62
33
0
3DFACE
8
0
10
-18.9903
20
3.26293
30
-82.8248
11
-45.9217
21
-9.78612
31
96.4083
12
-46.1708
22
-5.82672
32
89.7853
13
-19.2516
23
7.41593
33
-78.339
62
22
0
3DFACE
8
0
10
-28.562
20
-19.3787
30
45.0371
11
-18.9903
21
3.26293
31
-82.8248
12
-19.2516
22
7.41593
32
-78.339
13
-28.7903
23
-15.7507
33
37.4178
62
19
0
3DFACE
8
0
10
-6.80322
20
6.94161
30
77.8517
11
0
21
0
31
103.711
12
0
22
0
32
103.711
13
-7.12788
23
8.64359
33
80.3147
62
109
0
3DFACE
8
0
10
-15.0264
20
-17.1612
30
103.744
11
-6.80322
21
6.94161
31
77.8517
12
-7.12788
22
8.64359
32
80.3147
13
-15.5703
23
-14.3104
33
95.5866
62
102
0
3DFACE
8
0
10
-1.5059
20
-3.43207
30
62.6783
11
-15.0264
21
-17.1612
31
103.744
12
-15.5703
22
-14.3104
32
95.5866
13
-1.88954
23
-1.42098
33
65.2016
62
93
0
3DFACE
8
0
10
-26.322
20
8.47681
30
107.059
11
-1.5059
21
-3.43207
31
62.6783
12
-1.88954
22
-1.42098
32
65.2016
13
-26.8869
23
11.4382
33
112.595
62
84
0
3DFACE
8
0
10
-28.0578
20
-22.7215
30
69.1568
11
-26.322
21
8.47681
31
107.059
12
-26.8869
22
11.4382
32
112.595
13
-28.7961
23
-18.8514
33
56.9427
62
74
0
3DFACE
8
0
10
-17.3
20
3.73082
30
10.0791
11
-28.0578
21
-22.7215
31
69.1568
12
-28.7961
22
-18.8514
32
56.9427
13
-17.9816
23
7.30397
33
18.7591
62
64
0
3DFACE
8
0
10
2.40971
20
1.0577
30
39.2029
11
-17.3
21
3.73082
31
10.0791
12
-17.9816
22
7.30397
32
18.7591
13
2.10603
23
2.64967
33
38.0432
62
54
0
3DFACE
8
0
10
-6.48722
20
9.44703
30
37.8753
11
2.40971
21
1.0577
31
39.2029
12
2.10603
22
2.64967
32
38.0432
13
-6.84636
23
11.3297
33
39.7245
62
44
0
3DFACE
8
0
10
-45.1784
20
-13.6831
30
101.845
11
-6.48722
21
9.44703
31
37.8753
12
-6.84636
22
11.3297
32
39.7245
13
-45.9217
23
-9.78612
33
96.4083
62
33
0
3DFACE
8
0
10
-18.2106
20
-0.82458
30
-85.8369
11
-45.1784
21
-13.6831
31
101.845
12
-45.9217
22
-9.78612
32
96.4083
13
-18.9903
23
3.26293
33
-82.8248
62
22
0
3DFACE
8
0
10
-27.8808
20
-22.9494
30
51.9461
11
-18.2106
21
-0.82458
31
-85.8369
12
-18.9903
22
3.26293
32
-82.8248
13
-28.562
23
-19.3787
33
45.0371
62
19
0
3DFACE
8
0
10
-6.26779
20
5.29375
30
75.6971
11
0
21
0
31
103.711
12
0
22
0
32
103.711
13
-6.80322
23
6.94161
33
77.8517
62
109
0
3DFACE
8
0
10
-14.1296
20
-19.9214
30
111.68
11
-6.26779
21
5.29375
31
75.6971
12
-6.80322
22
6.94161
32
77.8517
13
-15.0264
23
-17.1612
33
103.744
62
102
0
3DFACE
8
0
10
-0.873234
20
-5.37922
30
60.4472
11
-14.1296
21
-19.9214
31
111.68
12
-15.0264
22
-17.1612
32
103.744
13
-1.5059
23
-3.43207
33
62.6783
62
93
0
3DFACE
8
0
10
-25.3904
20
5.60961
30
100.97
11
-0.873234
21
-5.37922
31
60.4472
12
-1.5059
22
-3.43207
32
62.6783
13
-26.322
23
8.47681
33
107.059
62
84
0
3DFACE
8
0
10
-26.8403
20
-26.4686
30
81.2644
11
-25.3904
21
5.60961
31
100.97
12
-26.322
22
8.47681
32
107.059
13
-28.0578
23
-22.7215
33
69.1568
62
74
0
3DFACE
8
0
10
-16.1759
20
0.271269
30
2.06693
11
-26.8403
21
-26.4686
31
81.2644
12
-28.0578
22
-22.7215
32
69.1568
13
-17.3
23
3.73082
33
10.0791
62
64
0
3DFACE
8
0
10
2.91053
20
-0.483643
30
40.4097
11
-16.1759
21
0.271269
31
2.06693
12
-17.3
22
3.73082
32
10.0791
13
2.40971
23
1.0577
33
39.2029
62
54
0
3DFACE
8
0
10
-5.89496
20
7.62424
30
35.9296
11
2.91053
21
-0.483643
31
40.4097
12
2.40971
22
1.0577
32
39.2029
13
-6.48722
23
9.44703
33
37.8753
62
44
0
3DFACE
8
0
10
-43.9524
20
-17.4561
30
106.011
11
-5.89496
21
7.62424
31
35.9296
12
-6.48722
22
9.44703
32
37.8753
13
-45.1784
23
-13.6831
33
101.845
62
33
0
3DFACE
8
0
10
-16.9247
20
-4.78213
30
-87.3278
11
-43.9524
21
-17.4561
31
106.011
12
-45.1784
22
-13.6831
32
101.845
13
-18.2106
23
-0.82458
33
-85.8369
62
22
0
3DFACE
8
0
10
-26.7575
20
-26.4067
30
58.0359
11
-16.9247
21
-4.78213
31
-87.3278
12
-18.2106
22
-0.82458
32
-85.8369
13
-27.8808
23
-22.9494
33
51.9461
62
19
0
3DFACE
8
0
10
-5.53006
20
3.726
30
73.8848
11
0
21
0
31
103.711
12
0
22
0
32
103.711
13
-6.26779
23
5.29375
33
75.6971
62
109
0
3DFACE
8
0
10
-12.8939
20
-22.5474
30
119.27
11
-5.53006
21
3.726
31
73.8848
12
-6.26779
22
5.29375
32
75.6971
13
-14.1296
23
-19.9214
33
111.68
62
102
0
3DFACE
8
0
10
-0.00151437
20
-7.23172
30
58.5434
11
-12.8939
21
-22.5474
31
119.27
12
-14.1296
22
-19.9214
32
111.68
13
-0.873234
23
-5.37922
33
60.4472
62
93
0
3DFACE
8
0
10
-24.1068
20
2.88178
30
94.4249
11
-0.00151437
21
-7.23172
31
58.5434
12
-0.873234
22
-5.37922
32
60.4472
13
-25.3904
23
5.60961
33
100.97
62
84
0
3DFACE
8
0
10
-25.1628
20
-30.0336
30
93.0746
11
-24.1068
21
2.88178
31
94.4249
12
-25.3904
22
5.60961
32
100.97
13
-26.8403
23
-26.4686
33
81.2644
62
74
0
3DFACE
8
0
10
-14.6271
20
-3.02011
30
-5.15113
11
-25.1628
21
-30.0336
31
93.0746
12
-26.8403
22
-26.4686
32
81.2644
13
-16.1759
23
0.271269
33
2.06693
62
64
0
3DFACE
8
0
10
3.60057
20
-1.95007
30
41.6445
11
-14.6271
21
-3.02011
31
-5.15113
12
-16.1759
22
0.271269
32
2.06693
13
2.91053
23
-0.483643
33
40.4097
62
54
0
3DFACE
8
0
10
-5.07891
20
5.89005
30
33.9181
11
3.60057
21
-1.95007
31
41.6445
12
2.91053
22
-0.483643
32
40.4097
13
-5.89496
23
7.62424
33
35.9296
62
44
0
3DFACE
8
0
10
-42.2632
20
-21.0458
30
108.84
11
-5.07891
21
5.89005
31
33.9181
12
-5.89496
22
7.62424
32
35.9296
13
-43.9524
23
-17.4561
33
106.011
62
33
0
3DFACE
8
0
10
-15.153
20
-8.54731
30
-87.274
11
-42.2632
21
-21.0458
31
108.84
12
-43.9524
22
-17.4561
32
106.011
13
-16.9247
23
-4.78213
33
-87.3278
62
22
0
3DFACE
8
0
10
-25.2097
20
-29.6959
30
63.2105
11
-15.153
21
-8.54731
31
-87.274
12
-16.9247
22
-4.78213
32
-87.3278
13
-26.7575
23
-26.4067
33
58.0359
62
19
0
3DFACE
8
0
10
-4.60166
20
2.26306
30
72.4436
11
0
21
0
31
103.711
12
0
22
0
32
103.711
13
-5.53006
23
3.726
33
73.8848
62
109
0
3DFACE
8
0
10
-11.3388
20
-24.9979
30
126.394
11
-4.60166
21
2.26306
31
72.4436
12
-5.53006
22
3.726
32
73.8848
13
-12.8939
23
-22.5474
33
119.27
62
102
0
3DFACE
8
0
10
1.09551
20
-8.96035
30
56.997
11
-11.3388
21
-24.9979
31
126.394
12
-12.8939
22
-22.5474
32
119.27
13
-0.00151437
23
-7.23172
33
58.5434
62
93
0
3DFACE
8
0
10
-22.4914
20
0.336342
30
87.5267
11
1.09551
21
-8.96035
31
56.997
12
-0.00151437
22
-7.23172
32
58.5434
13
-24.1068
23
2.88178
33
94.4249
62
84
0
3DFACE
8
0
10
-23.0517
20
-33.3601
30
104.401
11
-22.4914
21
0.336342
31
87.5267
12
-24.1068
22
2.88178
32
94.4249
13
-25.1628
23
-30.0336
33
93.0746
62
74
0
3DFACE
8
0
10
-12.678
20
-6.09143
30
-11.4612
11
-23.0517
21
-33.3601
31
104.401
12
-25.1628
22
-30.0336
32
93.0746
13
-14.6271
23
-3.02011
33
-5.15113
62
64
0
3DFACE
8
0
10
4.46897
20
-3.31844
30
42.8878
11
-12.678
21
-6.09143
31
-11.4612
12
-14.6271
22
-3.02011
32
-5.15113
13
3.60057
23
-1.95007
33
41.6445
62
54
0
3DFACE
8
0
10
-4.05195
20
4.27181
30
31.8727
11
4.46897
21
-3.31844
31
42.8878
12
3.60057
22
-1.95007
32
41.6445
13
-5.07891
23
5.89005
33
33.9181
62
44
0
3DFACE
8
0
10
-40.1375
20
-24.3954
30
110.286
11
-4.05195
21
4.27181
31
31.8727
12
-5.07891
22
5.89005
32
33.9181
13
-42.2632
23
-21.0458
33
108.84
62
33
0
3DFACE
8
0
10
-12.9233
20
-12.0607
30
-85.6764
11
-40.1375
21
-24.3954
31
110.286
12
-42.2632
22
-21.0458
32
108.84
13
-15.153
23
-8.54731
33
-87.274
62
22
0
3DFACE
8
0
10
-23.2619
20
-32.7652
30
67.3881
11
-12.9233
21
-12.0607
31
-85.6764
12
-15.153
22
-8.54731
32
-87.274
13
-25.2097
23
-29.6959
33
63.2105
62
19
0
3DFACE
8
0
10
-3.49722
20
0.928022
30
71.3961
11
0
21
0
31
103.711
12
0
22
0
32
103.711
13
-4.60166
23
2.26306
33
72.4436
62
109
0
3DFACE
8
0
10
-9.48886
20
-27.2341
30
132.941
11
-3.49722
21
0.928022
31
71.3961
12
-4.60166
22
2.26306
32
72.4436
13
-11.3388
23
-24.9979
33
126.394
62
102
0
3DFACE
8
0
10
2.40054
20
-10.5379
30
55.8322
11
-9.48886
21
-27.2341
31
132.941
12
-11.3388
22
-24.9979
32
126.394
13
1.09551
23
-8.96035
33
56.997
62
93
0
3DFACE
8
0
10
-20.5697
20
-1.98657
30
80.3842
11
2.40054
21
-10.5379
31
55.8322
12
1.09551
22
-8.96035
32
56.997
13
-22.4914
23
0.336342
33
87.5267
62
84
0
3DFACE
8
0
10
-20.5403
20
-36.3959
30
115.065
11
-20.5697
21
-1.98657
31
80.3842
12
-22.4914
22
0.336342
32
87.5267
13
-23.0517
23
-33.3601
33
104.401
62
74
0
3DFACE
8
0
10
-10.3593
20
-8.89423
30
-16.7638
11
-20.5403
21
-36.3959
31
115.065
12
-23.0517
22
-33.3601
32
104.401
13
-12.678
23
-6.09143
33
-11.4612
62
64
0
3DFACE
8
0
10
5.50202
20
-4.56719
30
44.1199
11
-10.3593
21
-8.89423
31
-16.7638
12
-12.678
22
-6.09143
32
-11.4612
13
4.46897
23
-3.31844
33
42.8878
62
54
0
3DFACE
8
0
10
-2.83026
20
2.79505
30
29.8256
11
5.50202
21
-4.56719
31
44.1199
12
4.46897
22
-3.31844
32
42.8878
13
-4.05195
23
4.27181
33
31.8727
62
44
0
3DFACE
8
0
10
-37.6087
20
-27.4522
30
110.329
11
-2.83026
21
2.79505
31
29.8256
12
-4.05195
22
4.27181
32
31.8727
13
-40.1375
23
-24.3954
33
110.286
62
33
0
3DFACE
8
0
10
-10.2708
20
-15.267
30
-82.5601
11
-37.6087
21
-27.4522
31
110.329
12
-40.1375
22
-24.3954
32
110.286
13
-12.9233
23
-12.0607
33
-85.6764
62
22
0
3DFACE
8
0
10
-20.9448
20
-35.5661
30
70.5031
11
-10.2708
21
-15.267
31
-82.5601
12
-12.9233
22
-12.0607
32
-85.6764
13
-23.2619
23
-32.7652
33
67.3881
62
19
0
3DFACE
8
0
10
-2.23416
20
-0.258067
30
70.7588
11
0
21
0
31
103.711
12
0
22
0
32
103.711
13
-3.49722
23
0.928022
33
71.3961
62
109
0
3DFACE
8
0
10
-7.37323
20
-29.2208
30
138.806
11
-2.23416
21
-0.258067
31
70.7588
12
-3.49722
22
0.928022
32
71.3961
13
-9.48886
23
-27.2341
33
132.941
62
102
0
3DFACE
8
0
10
3.893
20
-11.9394
30
55.0675
11
-7.37323
21
-29.2208
31
138.806
12
-9.48886
22
-27.2341
32
132.941
13
2.40054
23
-10.5379
33
55.8322
62
93
0
3DFACE
8
0
10
-18.372
20
-4.05031
30
73.11
11
3.893
21
-11.9394
31
55.0675
12
2.40054
22
-10.5379
32
55.8322
13
-20.5697
23
-1.98657
33
80.3842
62
84
0
3DFACE
8
0
10
-17.6682
20
-39.093
30
124.899
11
-18.372
21
-4.05031
31
73.11
12
-20.5697
22
-1.98657
32
80.3842
13
-20.5403
23
-36.3959
33
115.065
62
74
0
3DFACE
8
0
10
-7.70762
20
-11.3843
30
-20.9753
11
-17.6682
21
-39.093
31
124.899
12
-20.5403
22
-36.3959
32
115.065
13
-10.3593
23
-8.89423
33
-16.7638
62
64
0
3DFACE
8
0
10
6.68344
20
-5.67662
30
45.3216
11
-7.70762
21
-11.3843
31
-20.9753
12
-10.3593
22
-8.89423
32
-16.7638
13
5.50202
23
-4.56719
33
44.1199
62
54
0
3DFACE
8
0
10
-1.43312
20
1.48305
30
27.8089
11
6.68344
21
-5.67662
31
45.3216
12
5.50202
22
-4.56719
32
44.1199
13
-2.83026
23
2.79505
33
29.8256
62
44
0
3DFACE
8
0
10
-34.7167
20
-30.168
30
108.966
11
-1.43312
21
1.48305
31
27.8089
12
-2.83026
22
2.79505
32
29.8256
13
-37.6087
23
-27.4522
33
110.329
62
33
0
3DFACE
8
0
10
-7.23741
20
-18.1156
30
-77.9743
11
-34.7167
21
-30.168
31
108.966
12
-37.6087
22
-27.4522
32
110.329
13
-10.2708
23
-15.267
33
-82.5601
62
22
0
3DFACE
8
0
10
-18.2949
20
-38.0545
30
72.5061
11
-7.23741
21
-18.1156
31
-77.9743
12
-10.2708
22
-15.267
32
-82.5601
13
-20.9448
23
-35.5661
33
70.5031
62
19
0
3DFACE
8
0
10
-0.832406
20
-1.2765
30
70.5417
11
0
21
0
31
103.711
12
0
22
0
32
103.711
13
-2.23416
23
-0.258067
33
70.7588
62
109
0
3DFACE
8
0
10
-5.02528
20
-30.9267
30
143.897
11
-0.832406
21
-1.2765
31
70.5417
12
-2.23416
22
-0.258067
32
70.7588
13
-7.37323
23
-29.2208
33
138.806
62
102
0
3DFACE
8
0
10
5.54934
20
-13.1428
30
54.7149
11
-5.02528
21
-30.9267
31
143.897
12
-7.37323
22
-29.2208
32
138.806
13
3.893
23
-11.9394
33
55.0675
62
93
0
3DFACE
8
0
10
-15.933
20
-5.82234
30
65.8188
11
5.54934
21
-13.1428
31
54.7149
12
3.893
22
-11.9394
32
55.0675
13
-18.372
23
-4.05031
33
73.11
62
84
0
3DFACE
8
0
10
-14.4808
20
-41.4088
30
133.747
11
-15.933
21
-5.82234
31
65.8188
12
-18.372
22
-4.05031
32
73.11
13
-17.6682
23
-39.093
33
124.899
62
74
0
3DFACE
8
0
10
-4.76476
20
-13.5224
30
-24.0292
11
-14.4808
21
-41.4088
31
133.747
12
-17.6682
22
-39.093
32
124.899
13
-7.70762
23
-11.3843
33
-20.9753
62
64
0
3DFACE
8
0
10
7.99459
20
-6.62922
30
46.4737
11
-4.76476
21
-13.5224
31
-24.0292
12
-7.70762
22
-11.3843
32
-20.9753
13
6.68344
23
-5.67662
33
45.3216
62
54
0
3DFACE
8
0
10
0.117435
20
0.3565
30
25.8546
11
7.99459
21
-6.62922
31
46.4737
12
6.68344
22
-5.67662
32
45.3216
13
-1.43312
23
1.48305
33
27.8089
62
44
0
3DFACE
8
0
10
-31.5072
20
-32.4999
30
106.219
11
0.117435
21
0.3565
31
25.8546
12
-1.43312
22
1.48305
32
27.8089
13
-34.7167
23
-30.168
33
108.966
62
33
0
3DFACE
8
0
10
-3.87092
20
-20.5615
30
-71.9913
11
-31.5072
21
-32.4999
31
106.219
12
-34.7167
22
-30.168
32
108.966
13
-7.23741
23
-18.1156
33
-77.9743
62
22
0
3DFACE
8
0
10
-15.3539
20
-40.1912
30
73.3657
11
-3.87092
21
-20.5615
31
-71.9913
12
-7.23741
22
-18.1156
32
-77.9743
13
-18.2949
23
-38.0545
33
72.5061
62
19
0
3DFACE
8
0
10
0.685937
20
-2.11122
30
70.7484
11
0
21
0
31
103.711
12
0
22
0
32
103.711
13
-0.832406
23
-1.2765
33
70.5417
62
109
0
3DFACE
8
0
10
-2.48204
20
-32.3248
30
148.134
11
0.685937
21
-2.11122
31
70.7484
12
-0.832406
22
-1.2765
32
70.5417
13
-5.02528
23
-30.9267
33
143.897
62
102
0
3DFACE
8
0
10
7.34345
20
-14.1291
30
54.7801
11
-2.48204
21
-32.3248
31
148.134
12
-5.02528
22
-30.9267
32
143.897
13
5.54934
23
-13.1428
33
54.7149
62
93
0
3DFACE
8
0
10
-13.2912
20
-7.2747
30
58.6258
11
7.34345
21
-14.1291
31
54.7801
12
5.54934
22
-13.1428
32
54.7149
13
-15.933
23
-5.82234
33
65.8188
62
84
0
3DFACE
8
0
10
-11.0282
20
-43.3068
30
141.47
11
-13.2912
21
-7.2747
31
58.6258
12
-15.933
22
-5.82234
32
65.8188
13
-14.4808
23
-41.4088
33
133.747
62
74
0
3DFACE
8
0
10
-1.57712
20
-15.2749
30
-25.8774
11
-11.0282
21
-43.3068
31
141.47
12
-14.4808
22
-41.4088
32
133.747
13
-4.76476
23
-13.5224
33
-24.0292
62
64
0
3DFACE
8
0
10
9.41479
20
-7.40998
30
47.5582
11
-1.57712
21
-15.2749
31
-25.8774
12
-4.76476
22
-13.5224
32
-24.0292
13
7.99459
23
-6.62922
33
46.4737
62
54
0
3DFACE
8
0
10
1.79696
20
-0.566828
30
23.9935
11
9.41479
21
-7.40998
31
47.5582
12
7.99459
22
-6.62922
32
46.4737
13
0.117435
23
0.3565
33
25.8546
62
44
0
3DFACE
8
0
10
-28.0307
20
-34.4111
30
102.131
11
1.79696
21
-0.566828
31
23.9935
12
0.117435
22
0.3565
32
25.8546
13
-31.5072
23
-32.4999
33
106.219
62
33
0
3DFACE
8
0
10
-0.224418
20
-22.5661
30
-64.7055
11
-28.0307
21
-34.4111
31
102.131
12
-31.5072
22
-32.4999
32
106.219
13
-3.87092
23
-20.5615
33
-71.9913
62
22
0
3DFACE
8
0
10
-12.1684
20
-41.9425
30
73.0682
11
-0.224418
21
-22.5661
31
-64.7055
12
-3.87092
22
-20.5615
32
-71.9913
13
-15.3539
23
-40.1912
33
73.3657
62
19
0
3DFACE
8
0
10
2.29693
20
-2.74905
30
71.3756
11
0
21
0
31
103.711
12
0
22
0
32
103.711
13
0.685937
23
-2.11122
33
70.7484
62
109
0
3DFACE
8
0
10
0.216385
20
-33.3932
30
151.451
11
2.29693
21
-2.74905
31
71.3756
12
0.685937
22
-2.11122
32
70.7484
13
-2.48204
23
-32.3248
33
148.134
62
102
0
3DFACE
8
0
10
9.24703
20
-14.8828
30
55.2619
11
0.216385
21
-33.3932
31
151.451
12
-2.48204
22
-32.3248
32
148.134
13
7.34345
23
-14.1291
33
54.7801
62
93
0
3DFACE
8
0
10
-10.4882
20
-8.38451
30
51.6441
11
9.24703
21
-14.8828
31
55.2619
12
7.34345
22
-14.1291
32
54.7801
13
-13.2912
23
-7.2747
33
58.6258
62
84
0
3DFACE
8
0
10
-7.36494
20
-44.7572
30
147.946
11
-10.4882
21
-8.38451
31
51.6441
12
-13.2912
22
-7.2747
32
58.6258
13
-11.0282
23
-43.3068
33
141.47
62
74
0
3DFACE
8
0
10
1.80502
20
-16.6139
30
-26.4908
11
-7.36494
21
-44.7572
31
147.946
12
-11.0282
22
-43.3068
32
141.47
13
-1.57712
23
-15.2749
33
-25.8774
62
64
0
3DFACE
8
0
10
10.9217
20
-8.00659
30
48.558
11
1.80502
21
-16.6139
31
-26.4908
12
-1.57712
22
-15.2749
32
-25.8774
13
9.41479
23
-7.40998
33
47.5582
62
54
0
3DFACE
8
0
10
3.57897
20
-1.27237
30
22.2549
11
10.9217
21
-8.00659
31
48.558
12
9.41479
22
-7.40998
32
47.5582
13
1.79696
23
-0.566828
33
23.9935
62
44
0
3DFACE
8
0
10
-24.342
20
-35.8715
30
96.768
11
3.57897
21
-1.27237
31
22.2549
12
1.79696
22
-0.566828
32
23.9935
13
-28.0307
23
-34.4111
33
102.131
62
33
0
3DFACE
8
0
10
3.64458
20
-24.098
30
-56.2318
11
-24.342
21
-35.8715
31
96.768
12
-28.0307
22
-34.4111
32
102.131
13
-0.224418
23
-22.5661
33
-64.7055
62
22
0
3DFACE
8
0
10
-8.78853
20
-43.2807
30
71.6184
11
3.64458
21
-24.098
31
-56.2318
12
-0.224418
22
-22.5661
32
-64.7055
13
-12.1684
23
-41.9425
33
73.0682
62
19
0
3DFACE
8
0
10
3.97515
20
-3.17995
30
72.4132
11
0
21
0
31
103.711
12
0
22
0
32
103.711
13
2.29693
23
-2.74905
33
71.3756
62
109
0
3DFACE
8
0
10
3.02743
20
-34.115
30
153.794
11
3.97515
21
-3.17995
31
72.4132
12
2.29693
22
-2.74905
32
71.3756
13
0.216385
23
-33.3932
33
151.451
62
102
0
3DFACE
8
0
10
11.2301
20
-15.3919
30
56.1528
11
3.02743
21
-34.115
31
153.794
12
0.216385
22
-33.3932
32
151.451
13
9.24703
23
-14.8828
33
55.2619
62
93
0
3DFACE
8
0
10
-7.56811
20
-9.13425
30
44.9841
11
11.2301
21
-15.3919
31
56.1528
12
9.24703
22
-14.8828
32
55.2619
13
-10.4882
23
-8.38451
33
51.6441
62
84
0
3DFACE
8
0
10
-3.5488
20
-45.737
30
153.073
11
-7.56811
21
-9.13425
31
44.9841
12
-10.4882
22
-8.38451
32
51.6441
13
-7.36494
23
-44.7572
33
147.946
62
74
0
3DFACE
8
0
10
5.32832
20
-17.5186
30
-25.8597
11
-3.5488
21
-45.737
31
153.073
12
-7.36494
22
-44.7572
32
147.946
13
1.80502
23
-16.6139
33
-26.4908
62
64
0
3DFACE
8
0
10
12.4914
20
-8.40964
30
49.4572
11
5.32832
21
-17.5186
31
-25.8597
12
1.80502
22
-16.6139
32
-26.4908
13
10.9217
23
-8.00659
33
48.558
62
54
0
3DFACE
8
0
10
5.43535
20
-1.74901
30
20.6662
11
12.4914
21
-8.40964
31
49.4572
12
10.9217
22
-8.00659
32
48.558
13
3.57897
23
-1.27237
33
22.2549
62
44
0
3DFACE
8
0
10
-20.4994
20
-36.8581
30
90.2133
11
5.43535
21
-1.74901
31
20.6662
12
3.57897
22
-1.27237
32
22.2549
13
-24.342
23
-35.8715
33
96.768
62
33
0
3DFACE
8
0
10
7.67507
20
-25.1328
30
-46.7038
11
-20.4994
21
-36.8581
31
90.2133
12
-24.342
22
-35.8715
32
96.768
13
3.64458
23
-24.098
33
-56.2318
62
22
0
3DFACE
8
0
10
-5.26757
20
-44.1847
30
69.0392
11
7.67507
21
-25.1328
31
-46.7038
12
3.64458
22
-24.098
32
-56.2318
13
-8.78853
23
-43.2807
33
71.6184
62
19
0
3DFACE
8
0
10
5.69415
20
-3.39711
30
73.8451
11
0
21
0
31
103.711
12
0
22
0
32
103.711
13
3.97515
23
-3.17995
33
72.4132
62
109
0
3DFACE
8
0
10
5.90677
20
-34.4787
30
155.127
11
5.69415
21
-3.39711
31
73.8451
12
3.97515
22
-3.17995
32
72.4132
13
3.02743
23
-34.115
33
153.794
62
102
0
3DFACE
8
0
10
13.2613
20
-15.6485
30
57.4387
11
5.90677
21
-34.4787
31
155.127
12
3.02743
22
-34.115
32
153.794
13
11.2301
23
-15.3919
33
56.1528
62
93
0
3DFACE
8
0
10
-4.57713
20
-9.5121
30
38.7507
11
13.2613
21
-15.6485
31
57.4387
12
11.2301
22
-15.3919
32
56.1528
13
-7.56811
23
-9.13425
33
44.9841
62
84
0
3DFACE
8
0
10
0.360045
20
-46.2308
30
156.77
11
-4.57713
21
-9.5121
31
38.7507
12
-7.56811
22
-9.13425
32
44.9841
13
-3.5488
23
-45.737
33
153.073
62
74
0
3DFACE
8
0
10
8.93722
20
-17.9745
30
-23.994
11
0.360045
21
-46.2308
31
156.77
12
-3.5488
22
-45.737
32
153.073
13
5.32832
23
-17.5186
33
-25.8597
62
64
0
3DFACE
8
0
10
14.0993
20
-8.61276
30
50.2417
11
8.93722
21
-17.9745
31
-23.994
12
5.32832
22
-17.5186
32
-25.8597
13
12.4914
23
-8.40964
33
49.4572
62
54
0
3DFACE
8
0
10
7.33684
20
-1.98923
30
19.2525
11
14.0993
21
-8.61276
31
50.2417
12
12.4914
22
-8.40964
32
49.4572
13
5.43535
23
-1.74901
33
20.6662
62
44
0
3DFACE
8
0
10
-16.5635
20
-37.3553
30
82.5706
11
7.33684
21
-1.98923
31
19.2525
12
5.43535
22
-1.74901
32
20.6662
13
-20.4994
23
-36.8581
33
90.2133
62
33
0
3DFACE
8
0
10
11.8035
20
-25.6544
30
-36.2718
11
-16.5635
21
-37.3553
31
82.5706
12
-20.4994
22
-36.8581
32
90.2133
13
7.67507
23
-25.1328
33
-46.7038
62
22
0
3DFACE
8
0
10
-1.66106
20
-44.6403
30
65.3712
11
11.8035
21
-25.6544
31
-36.2718
12
7.67507
22
-25.1328
32
-46.7038
13
-5.26757
23
-44.1847
33
69.0392
62
19
0
3DFACE
8
0
10
7.42681
20
-3.39711
30
75.6486
11
0
21
0
31
103.711
12
0
22
0
32
103.711
13
5.69415
23
-3.39711
33
73.8451
62
109
0
3DFACE
8
0
10
8.809
20
-34.4787
30
155.429
11
7.42681
21
-3.39711
31
75.6486
12
5.69415
22
-3.39711
32
73.8451
13
5.90677
23
-34.4787
33
155.127
62
102
0
3DFACE
8
0
10
15.3086
20
-15.6485
30
59.0993
11
8.809
21
-34.4787
31
155.429
12
5.90677
22
-34.4787
32
155.127
13
13.2613
23
-15.6485
33
57.4387
62
93
0
3DFACE
8
0
10
-1.56238
20
-9.5121
30
33.0422
11
15.3086
21
-15.6485
31
59.0993
12
13.2613
22
-15.6485
32
57.4387
13
-4.57713
23
-9.5121
33
38.7507
62
84
0
3DFACE
8
0
10
4.29996
20
-46.2308
30
158.979
11
-1.56238
21
-9.5121
31
33.0422
12
-4.57713
22
-9.5121
32
38.7507
13
0.360045
23
-46.2308
33
156.77
62
74
0
3DFACE
8
0
10
12.5748
20
-17.9745
30
-20.9231
11
4.29996
21
-46.2308
31
158.979
12
0.360045
22
-46.2308
32
156.77
13
8.93722
23
-17.9745
33
-23.994
62
64
0
3DFACE
8
0
10
15.72
20
-8.61276
30
50.8991
11
12.5748
21
-17.9745
31
-20.9231
12
8.93722
22
-17.9745
32
-23.994
13
14.0993
23
-8.61276
33
50.2417
62
54
0
3DFACE
8
0
10
9.25344
20
-1.98923
30
18.0361
11
15.72
21
-8.61276
31
50.8991
12
14.0993
22
-8.61276
32
50.2417
13
7.33684
23
-1.98923
33
19.2525
62
44
0
3DFACE
8
0
10
-12.5963
20
-37.3553
30
73.9603
11
9.25344
21
-1.98923
31
18.0361
12
7.33684
22
-1.98923
32
19.2525
13
-16.5635
23
-37.3553
33
82.5706
62
33
0
3DFACE
8
0
10
15.9647
20
-25.6544
30
-25.1003
11
-12.5963
21
-37.3553
31
73.9603
12
-16.5635
22
-37.3553
32
82.5706
13
11.8035
23
-25.6544
33
-36.2718
62
22
0
3DFACE
8
0
10
1.9741
20
-44.6403
30
60.6722
11
15.9647
21
-25.6544
31
-25.1003
12
11.8035
22
-25.6544
32
-36.2718
13
-1.66106
23
-44.6403
33
65.3712
62
19
0
3DFACE
8
0
10
9.14581
20
-3.17995
30
77.7952
11
0
21
0
31
103.711
12
0
22
0
32
103.711
13
7.42681
23
-3.39711
33
75.6486
62
109
0
3DFACE
8
0
10
11.6883
20
-34.115
30
154.694
11
9.14581
21
-3.17995
31
77.7952
12
7.42681
22
-3.39711
32
75.6486
13
8.809
23
-34.4787
33
155.429
62
102
0
3DFACE
8
0
10
17.3398
20
-15.3919
30
61.1085
11
11.6883
21
-34.115
31
154.694
12
8.809
22
-34.4787
32
155.429
13
15.3086
23
-15.6485
33
59.0993
62
93
0
3DFACE
8
0
10
1.4286
20
-9.13425
30
27.9487
11
17.3398
21
-15.3919
31
61.1085
12
15.3086
22
-15.6485
32
59.0993
13
-1.56238
23
-9.5121
33
33.0422
62
84
0
3DFACE
8
0
10
8.20881
20
-45.737
30
159.665
11
1.4286
21
-9.13425
31
27.9487
12
-1.56238
22
-9.5121
32
33.0422
13
4.29996
23
-46.2308
33
158.979
62
74
0
3DFACE
8
0
10
16.1837
20
-17.5186
30
-16.6956
11
8.20881
21
-45.737
31
159.665
12
4.29996
22
-46.2308
32
158.979
13
12.5748
23
-17.9745
33
-20.9231
62
64
0
3DFACE
8
0
10
17.3279
20
-8.40964
30
51.4191
11
16.1837
21
-17.5186
31
-16.6956
12
12.5748
22
-17.9745
32
-20.9231
13
15.72
23
-8.61276
33
50.8991
62
54
0
3DFACE
8
0
10
11.1549
20
-1.74901
30
17.0361
11
17.3279
21
-8.40964
31
51.4191
12
15.72
22
-8.61276
32
50.8991
13
9.25344
23
-1.98923
33
18.0361
62
44
0
3DFACE
8
0
10
-8.66032
20
-36.8581
30
64.5184
11
11.1549
21
-1.74901
31
17.0361
12
9.25344
22
-1.98923
32
18.0361
13
-12.5963
23
-37.3553
33
73.9603
62
33
0
3DFACE
8
0
10
20.0931
20
-25.1328
30
-13.3654
11
-8.66032
21
-36.8581
31
64.5184
12
-12.5963
22
-37.3553
32
73.9603
13
15.9647
23
-25.6544
33
-25.1003
62
22
0
3DFACE
8
0
10
5.58061
20
-44.1847
30
55.0164
11
20.0931
21
-25.1328
31
-13.3654
12
15.9647
22
-25.6544
32
-25.1003
13
1.9741
23
-44.6403
33
60.6722
62
19
0
3DFACE
8
0
10
10.824
20
-2.74905
30
80.2512
11
0
21
0
31
103.711
12
0
22
0
32
103.711
13
9.14581
23
-3.17995
33
77.7952
62
109
0
3DFACE
8
0
10
14.4994
20
-33.3932
30
152.936
11
10.824
21
-2.74905
31
80.2512
12
9.14581
22
-3.17995
32
77.7952
13
11.6883
23
-34.115
33
154.694
62
102
0
3DFACE
8
0
10
19.3229
20
-14.8828
30
63.4346
11
14.4994
21
-33.3932
31
152.936
12
11.6883
22
-34.115
32
154.694
13
17.3398
23
-15.3919
33
61.1085
62
93
0
3DFACE
8
0
10
4.34864
20
-8.38451
30
23.5504
11
19.3229
21
-14.8828
31
63.4346
12
17.3398
22
-15.3919
32
61.1085
13
1.4286
23
-9.13425
33
27.9487
62
84
0
3DFACE
8
0
10
12.0249
20
-44.7572
30
158.817
11
4.34864
21
-8.38451
31
23.5504
12
1.4286
22
-9.13425
32
27.9487
13
8.20881
23
-45.737
33
159.665
62
74
0
3DFACE
8
0
10
19.707
20
-16.6139
30
-11.378
11
12.0249
21
-44.7572
31
158.817
12
8.20881
22
-45.737
32
159.665
13
16.1837
23
-17.5186
33
-16.6956
62
64
0
3DFACE
8
0
10
18.8976
20
-8.00659
30
51.7934
11
19.707
21
-16.6139
31
-11.378
12
16.1837
22
-17.5186
32
-16.6956
13
17.3279
23
-8.40964
33
51.4191
62
54
0
3DFACE
8
0
10
13.0113
20
-1.27237
30
16.2684
11
18.8976
21
-8.00659
31
51.7934
12
17.3279
22
-8.40964
32
51.4191
13
11.1549
23
-1.74901
33
17.0361
62
44
0
3DFACE
8
0
10
-4.81773
20
-35.8715
30
54.3936
11
13.0113
21
-1.27237
31
16.2684
12
11.1549
22
-1.74901
32
17.0361
13
-8.66032
23
-36.8581
33
64.5184
62
33
0
3DFACE
8
0
10
24.1236
20
-24.098
30
-1.25227
11
-4.81773
21
-35.8715
31
54.3936
12
-8.66032
22
-36.8581
32
64.5184
13
20.0931
23
-25.1328
33
-13.3654
62
22
0
3DFACE
8
0
10
9.10157
20
-43.2807
30
48.4929
11
24.1236
21
-24.098
31
-1.25227
12
20.0931
22
-25.1328
32
-13.3654
13
5.58061
23
-44.1847
33
55.0164
62
19
0
3DFACE
8
0
10
12.435
20
-2.11122
30
82.9777
11
0
21
0
31
103.711
12
0
22
0
32
103.711
13
10.824
23
-2.74905
33
80.2512
62
109
0
3DFACE
8
0
10
17.1978
20
-32.3248
30
150.181
11
12.435
21
-2.11122
31
82.9777
12
10.824
22
-2.74905
32
80.2512
13
14.4994
23
-33.3932
33
152.936
62
102
0
3DFACE
8
0
10
21.2264
20
-14.1291
30
66.0408
11
17.1978
21
-32.3248
31
150.181
12
14.4994
22
-33.3932
32
152.936
13
19.3229
23
-14.8828
33
63.4346
62
93
0
3DFACE
8
0
10
7.15169
20
-7.2747
30
19.9168
11
21.2264
21
-14.1291
31
66.0408
12
19.3229
22
-14.8828
32
63.4346
13
4.34864
23
-8.38451
33
23.5504
62
84
0
3DFACE
8
0
10
15.6882
20
-43.3068
30
156.448
11
7.15169
21
-7.2747
31
19.9168
12
4.34864
22
-8.38451
32
23.5504
13
12.0249
23
-44.7572
33
158.817
62
74
0
3DFACE
8
0
10
23.0891
20
-15.2749
30
-5.0542
11
15.6882
21
-43.3068
31
156.448
12
12.0249
22
-44.7572
32
158.817
13
19.707
23
-16.6139
33
-11.378
62
64
0
3DFACE
8
0
10
20.4045
20
-7.40998
30
52.0162
11
23.0891
21
-15.2749
31
-5.0542
12
19.707
22
-16.6139
32
-11.378
13
18.8976
23
-8.00659
33
51.7934
62
54
0
3DFACE
8
0
10
14.7933
20
-0.566828
30
15.745
11
20.4045
21
-7.40998
31
52.0162
12
18.8976
22
-8.00659
32
51.7934
13
13.0113
23
-1.27237
33
16.2684
62
44
0
3DFACE
8
0
10
-1.1291
20
-34.4111
30
43.7457
11
14.7933
21
-0.566828
31
15.745
12
13.0113
22
-1.27237
32
16.2684
13
-4.81773
23
-35.8715
33
54.3936
62
33
0
3DFACE
8
0
10
27.9926
20
-22.5661
30
11.0481
11
-1.1291
21
-34.4111
31
43.7457
12
-4.81773
22
-35.8715
32
54.3936
13
24.1236
23
-24.098
33
-1.25227
62
22
0
3DFACE
8
0
10
12.4815
20
-41.9425
30
41.2047
11
27.9926
21
-22.5661
31
11.0481
12
24.1236
22
-24.098
32
-1.25227
13
9.10157
23
-43.2807
33
48.4929
62
19
0
3DFACE
8
0
10
13.9534
20
-1.2765
30
85.9319
11
0
21
0
31
103.711
12
0
22
0
32
103.711
13
12.435
23
-2.11122
33
82.9777
62
109
0
3DFACE
8
0
10
19.741
20
-30.9267
30
146.473
11
13.9534
21
-1.2765
31
85.9319
12
12.435
22
-2.11122
32
82.9777
13
17.1978
23
-32.3248
33
150.181
62
102
0
3DFACE
8
0
10
23.0205
20
-13.1428
30
68.8862
11
19.741
21
-30.9267
31
146.473
12
17.1978
22
-32.3248
32
150.181
13
21.2264
23
-14.1291
33
66.0408
62
93
0
3DFACE
8
0
10
9.79354
20
-5.82234
30
17.1051
11
23.0205
21
-13.1428
31
68.8862
12
21.2264
22
-14.1291
32
66.0408
13
7.15169
23
-7.2747
33
19.9168
62
84
0
3DFACE
8
0
10
19.1408
20
-41.4088
30
152.597
11
9.79354
21
-5.82234
31
17.1051
12
7.15169
22
-7.2747
32
19.9168
13
15.6882
23
-43.3068
33
156.448
62
74
0
3DFACE
8
0
10
26.2768
20
-13.5224
30
2.17604
11
19.1408
21
-41.4088
31
152.597
12
15.6882
22
-43.3068
32
156.448
13
23.0891
23
-15.2749
33
-5.0542
62
64
0
3DFACE
8
0
10
21.8247
20
-6.62922
30
52.084
11
26.2768
21
-13.5224
31
2.17604
12
23.0891
22
-15.2749
32
-5.0542
13
20.4045
23
-7.40998
33
52.0162
62
54
0
3DFACE
8
0
10
16.4728
20
0.3565
30
15.4743
11
21.8247
21
-6.62922
31
52.084
12
20.4045
22
-7.40998
32
52.0162
13
14.7933
23
-0.566828
33
15.745
62
44
0
3DFACE
8
0
10
2.34741
20
-32.4999
30
32.7426
11
16.4728
21
0.3565
31
15.4743
12
14.7933
22
-0.566828
32
15.745
13
-1.1291
23
-34.4111
33
43.7457
62
33
0
3DFACE
8
0
10
31.6391
20
-20.5615
30
23.3417
11
2.34741
21
-32.4999
31
32.7426
12
-1.1291
22
-34.4111
32
43.7457
13
27.9926
23
-22.5661
33
11.0481
62
22
0
3DFACE
8
0
10
15.667
20
-40.1912
30
33.2667
11
31.6391
21
-20.5615
31
23.3417
12
27.9926
22
-22.5661
32
11.0481
13
12.4815
23
-41.9425
33
41.2047
62
19
0
3DFACE
8
0
10
15.3551
20
-0.258067
30
89.067
11
0
21
0
31
103.711
12
0
22
0
32
103.711
13
13.9534
23
-1.2765
33
85.9319
62
109
0
3DFACE
8
0
10
22.089
20
-29.2208
30
141.87
11
15.3551
21
-0.258067
31
89.067
12
13.9534
22
-1.2765
32
85.9319
13
19.741
23
-30.9267
33
146.473
62
102
0
3DFACE
8
0
10
24.6769
20
-11.9394
30
71.9257
11
22.089
21
-29.2208
31
141.87
12
19.741
22
-30.9267
32
146.473
13
23.0205
23
-13.1428
33
68.8862
62
93
0
3DFACE
8
0
10
12.2325
20
-4.05031
30
15.1597
11
24.6769
21
-11.9394
31
71.9257
12
23.0205
22
-13.1428
32
68.8862
13
9.79354
23
-5.82234
33
17.1051
62
84
0
3DFACE
8
0
10
22.3282
20
-39.093
30
147.323
11
12.2325
21
-4.05031
31
15.1597
12
9.79354
22
-5.82234
32
17.1051
13
19.1408
23
-41.4088
33
152.597
62
74
0
3DFACE
8
0
10
29.2196
20
-11.3843
30
10.1987
11
22.3282
21
-39.093
31
147.323
12
19.1408
22
-41.4088
32
152.597
13
26.2768
23
-13.5224
33
2.17604
62
64
0
3DFACE
8
0
10
23.1358
20
-5.67662
30
51.9955
11
29.2196
21
-11.3843
31
10.1987
12
26.2768
22
-13.5224
32
2.17604
13
21.8247
23
-6.62922
33
52.084
62
54
0
3DFACE
8
0
10
18.0234
20
1.48305
30
15.4604
11
23.1358
21
-5.67662
31
51.9955
12
21.8247
22
-6.62922
32
52.084
13
16.4728
23
0.3565
33
15.4743
62
44
0
3DFACE
8
0
10
5.55696
20
-30.168
30
21.5578
11
18.0234
21
1.48305
31
15.4604
12
16.4728
22
0.3565
32
15.4743
13
2.34741
23
-32.4999
33
32.7426
62
33
0
3DFACE
8
0
10
35.0056
20
-18.1156
30
35.4346
11
5.55696
21
-30.168
31
21.5578
12
2.34741
22
-32.4999
32
32.7426
13
31.6391
23
-20.5615
33
23.3417
62
22
0
3DFACE
8
0
10
18.6079
20
-38.0545
30
24.804
11
35.0056
21
-18.1156
31
35.4346
12
31.6391
22
-20.5615
32
23.3417
13
15.667
23
-40.1912
33
33.2667
62
19
0
3DFACE
8
0
10
16.6182
20
0.928022
30
92.3336
11
0
21
0
31
103.711
12
0
22
0
32
103.711
13
15.3551
23
-0.258067
33
89.067
62
109
0
3DFACE
8
0
10
24.2046
20
-27.2341
30
136.445
11
16.6182
21
0.928022
31
92.3336
12
15.3551
22
-0.258067
32
89.067
13
22.089
23
-29.2208
33
141.87
62
102
0
3DFACE
8
0
10
26.1693
20
-10.5379
30
75.1115
11
24.2046
21
-27.2341
31
136.445
12
22.089
22
-29.2208
32
141.87
13
24.6769
23
-11.9394
33
71.9257
62
93
0
3DFACE
8
0
10
14.4302
20
-1.98657
30
14.1113
11
26.1693
21
-10.5379
31
75.1115
12
24.6769
22
-11.9394
32
71.9257
13
12.2325
23
-4.05031
33
15.1597
62
84
0
3DFACE
8
0
10
25.2003
20
-36.3959
30
140.71
11
14.4302
21
-1.98657
31
14.1113
12
12.2325
22
-4.05031
32
15.1597
13
22.3282
23
-39.093
33
147.323
62
74
0
3DFACE
8
0
10
31.8713
20
-8.89423
30
18.8873
11
25.2003
21
-36.3959
31
140.71
12
22.3282
22
-39.093
32
147.323
13
29.2196
23
-11.3843
33
10.1987
62
64
0
3DFACE
8
0
10
24.3172
20
-4.56719
30
51.7524
11
31.8713
21
-8.89423
31
18.8873
12
29.2196
22
-11.3843
32
10.1987
13
23.1358
23
-5.67662
33
51.9955
62
54
0
3DFACE
8
0
10
19.4205
20
2.79505
30
15.7035
11
24.3172
21
-4.56719
31
51.7524
12
23.1358
22
-5.67662
32
51.9955
13
18.0234
23
1.48305
33
15.4604
62
44
0
3DFACE
8
0
10
8.44895
20
-27.4522
30
10.3677
11
19.4205
21
2.79505
31
15.7035
12
18.0234
22
1.48305
32
15.4604
13
5.55696
23
-30.168
33
21.5578
62
33
0
3DFACE
8
0
10
38.039
20
-15.267
30
47.1363
11
8.44895
21
-27.4522
31
10.3677
12
5.55696
22
-30.168
32
21.5578
13
35.0056
23
-18.1156
33
35.4346
62
22
0
3DFACE
8
0
10
21.2578
20
-35.5661
30
15.9502
11
38.039
21
-15.267
31
47.1363
12
35.0056
22
-18.1156
32
35.4346
13
18.6079
23
-38.0545
33
24.804
62
19
0
3DFACE
8
0
10
17.7226
20
2.26306
30
95.6803
11
0
21
0
31
103.711
12
0
22
0
32
103.711
13
16.6182
23
0.928022
33
92.3336
62
109
0
3DFACE
8
0
10
26.0546
20
-24.9979
30
130.283
11
17.7226
21
2.26306
31
95.6803
12
16.6182
22
0.928022
32
92.3336
13
24.2046
23
-27.2341
33
136.445
62
102
0
3DFACE
8
0
10
27.4744
20
-8.96035
30
78.3934
11
26.0546
21
-24.9979
31
130.283
12
24.2046
22
-27.2341
32
136.445
13
26.1693
23
-10.5379
33
75.1115
62
93
0
3DFACE
8
0
10
16.3519
20
0.336342
30
13.9763
11
27.4744
21
-8.96035
31
78.3934
12
26.1693
22
-10.5379
32
75.1115
13
14.4302
23
-1.98657
33
14.1113
62
84
0
3DFACE
8
0
10
27.7117
20
-33.3601
30
132.861
11
16.3519
21
0.336342
31
13.9763
12
14.4302
22
-1.98657
32
14.1113
13
25.2003
23
-36.3959
33
140.71
62
74
0
3DFACE
8
0
10
34.19
20
-6.09143
30
28.1047
11
27.7117
21
-33.3601
31
132.861
12
25.2003
22
-36.3959
32
140.71
13
31.8713
23
-8.89423
33
18.8873
62
64
0
3DFACE
8
0
10
25.3503
20
-3.31844
30
51.3584
11
34.19
21
-6.09143
31
28.1047
12
31.8713
22
-8.89423
32
18.8873
13
24.3172
23
-4.56719
33
51.7524
62
54
0
3DFACE
8
0
10
20.6422
20
4.27181
30
16.1999
11
25.3503
21
-3.31844
31
51.3584
12
24.3172
22
-4.56719
32
51.7524
13
19.4205
23
2.79505
33
15.7035
62
44
0
3DFACE
8
0
10
10.9778
20
-24.3954
30
-0.651169
11
20.6422
21
4.27181
31
16.1999
12
19.4205
22
2.79505
32
15.7035
13
8.44895
23
-27.4522
33
10.3677
62
33
0
3DFACE
8
0
10
40.6914
20
-12.0607
30
58.262
11
10.9778
21
-24.3954
31
-0.651169
12
8.44895
22
-27.4522
32
10.3677
13
38.039
23
-15.267
33
47.1363
62
22
0
3DFACE
8
0
10
23.575
20
-32.7652
30
6.84479
11
40.6914
21
-12.0607
31
58.262
12
38.039
22
-15.267
32
47.1363
13
21.2578
23
-35.5661
33
15.9502
62
19
0
3DFACE
8
0
10
18.651
20
3.726
30
99.0543
11
0
21
0
31
103.711
12
0
22
0
32
103.711
13
17.7226
23
2.26306
33
95.6803
62
109
0
3DFACE
8
0
10
27.6097
20
-22.5474
30
123.482
11
18.651
21
3.726
31
99.0543
12
17.7226
22
2.26306
32
95.6803
13
26.0546
23
-24.9979
33
130.283
62
102
0
3DFACE
8
0
10
28.5714
20
-7.23172
30
81.7195
11
27.6097
21
-22.5474
31
123.482
12
26.0546
22
-24.9979
32
130.283
13
27.4744
23
-8.96035
33
78.3934
62
93
0
3DFACE
8
0
10
17.9673
20
2.88178
30
14.757
11
28.5714
21
-7.23172
31
81.7195
12
27.4744
22
-8.96035
32
78.3934
13
16.3519
23
0.336342
33
13.9763
62
84
0
3DFACE
8
0
10
29.8228
20
-30.0336
30
123.902
11
17.9673
21
2.88178
31
14.757
12
16.3519
22
0.336342
32
13.9763
13
27.7117
23
-33.3601
33
132.861
62
74
0
3DFACE
8
0
10
36.1391
20
-3.02011
30
37.7057
11
29.8228
21
-30.0336
31
123.902
12
27.7117
22
-33.3601
32
132.861
13
34.19
23
-6.09143
33
28.1047
62
64
0
3DFACE
8
0
10
26.2187
20
-1.95007
30
50.8196
11
36.1391
21
-3.02011
31
37.7057
12
34.19
22
-6.09143
32
28.1047
13
25.3503
23
-3.31844
33
51.3584
62
54
0
3DFACE
8
0
10
21.6692
20
5.89005
30
16.9418
11
26.2187
21
-1.95007
31
50.8196
12
25.3503
22
-3.31844
32
51.3584
13
20.6422
23
4.27181
33
16.1999
62
44
0
3DFACE
8
0
10
13.1035
20
-21.0458
30
-11.3251
11
21.6692
21
5.89005
31
16.9418
12
20.6422
22
4.27181
32
16.1999
13
10.9778
23
-24.3954
33
-0.651169
62
33
0
3DFACE
8
0
10
42.9211
20
-8.54731
30
68.6364
11
13.1035
21
-21.0458
31
-11.3251
12
10.9778
22
-24.3954
32
-0.651169
13
40.6914
23
-12.0607
33
58.262
62
22
0
3DFACE
8
0
10
25.5228
20
-29.6959
30
-2.36855
11
42.9211
21
-8.54731
31
68.6364
12
40.6914
22
-12.0607
32
58.262
13
23.575
23
-32.7652
33
6.84479
62
19
0
3DFACE
8
0
10
19.3888
20
5.29375
30
102.402
11
0
21
0
31
103.711
12
0
22
0
32
103.711
13
18.651
23
3.726
33
99.0543
62
109
0
3DFACE
8
0
10
28.8454
20
-19.9214
30
116.149
11
19.3888
21
5.29375
31
102.402
12
18.651
22
3.726
32
99.0543
13
27.6097
23
-22.5474
33
123.482
62
102
0
3DFACE
8
0
10
29.4431
20
-5.37922
30
85.0374
11
28.8454
21
-19.9214
31
116.149
12
27.6097
22
-22.5474
32
123.482
13
28.5714
23
-7.23172
33
81.7195
62
93
0
3DFACE
8
0
10
19.2509
20
5.60961
30
16.441
11
29.4431
21
-5.37922
31
85.0374
12
28.5714
22
-7.23172
32
81.7195
13
17.9673
23
2.88178
33
14.757
62
84
0
3DFACE
8
0
10
31.5003
20
-26.4686
30
113.973
11
19.2509
21
5.60961
31
16.441
12
17.9673
22
2.88178
32
14.757
13
29.8228
23
-30.0336
33
123.902
62
74
0
3DFACE
8
0
10
37.6879
20
0.271269
30
47.5387
11
31.5003
21
-26.4686
31
113.973
12
29.8228
22
-30.0336
32
123.902
13
36.1391
23
-3.02011
33
37.7057
62
64
0
3DFACE
8
0
10
26.9087
20
-0.483643
30
50.1447
11
37.6879
21
0.271269
31
47.5387
12
36.1391
22
-3.02011
32
37.7057
13
26.2187
23
-1.95007
33
50.8196
62
54
0
3DFACE
8
0
10
22.4852
20
7.62424
30
17.9174
11
26.9087
21
-0.483643
31
50.1447
12
26.2187
22
-1.95007
32
50.8196
13
21.6692
23
5.89005
33
16.9418
62
44
0
3DFACE
8
0
10
14.7927
20
-17.4561
30
-21.4858
11
22.4852
21
7.62424
31
17.9174
12
21.6692
22
5.89005
32
16.9418
13
13.1035
23
-21.0458
33
-11.3251
62
33
0
3DFACE
8
0
10
44.6929
20
-4.78213
30
78.0958
11
14.7927
21
-17.4561
31
-21.4858
12
13.1035
22
-21.0458
32
-11.3251
13
42.9211
23
-8.54731
33
68.6364
62
22
0
3DFACE
8
0
10
27.0706
20
-26.4067
30
-11.5445
11
44.6929
21
-4.78213
31
78.0958
12
42.9211
22
-8.54731
32
68.6364
13
25.5228
23
-29.6959
33
-2.36855
62
19
0
3DFACE
8
0
10
19.9242
20
6.94161
30
105.672
11
0
21
0
31
103.711
12
0
22
0
32
103.711
13
19.3888
23
5.29375
33
102.402
62
109
0
3DFACE
8
0
10
29.7422
20
-17.1612
30
108.399
11
19.9242
21
6.94161
31
105.672
12
19.3888
22
5.29375
32
102.402
13
28.8454
23
-19.9214
33
116.149
62
102
0
3DFACE
8
0
10
30.0758
20
-3.43207
30
88.2949
11
29.7422
21
-17.1612
31
108.399
12
28.8454
22
-19.9214
32
116.149
13
29.4431
23
-5.37922
33
85.0374
62
93
0
3DFACE
8
0
10
20.1825
20
8.47681
30
19.0018
11
30.0758
21
-3.43207
31
88.2949
12
29.4431
22
-5.37922
32
85.0374
13
19.2509
23
5.60961
33
16.441
62
84
0
3DFACE
8
0
10
32.7178
20
-22.7215
30
103.231
11
20.1825
21
8.47681
31
19.0018
12
19.2509
22
5.60961
32
16.441
13
31.5003
23
-26.4686
33
113.973
62
74
0
3DFACE
8
0
10
38.812
20
3.73082
30
57.4488
11
32.7178
21
-22.7215
31
103.231
12
31.5003
22
-26.4686
32
113.973
13
37.6879
23
0.271269
33
47.5387
62
64
0
3DFACE
8
0
10
27.4095
20
1.0577
30
49.3442
11
38.812
21
3.73082
31
57.4488
12
37.6879
22
0.271269
32
47.5387
13
26.9087
23
-0.483643
33
50.1447
62
54
0
3DFACE
8
0
10
23.0775
20
9.44703
30
19.1113
11
27.4095
21
1.0577
31
49.3442
12
26.9087
22
-0.483643
32
50.1447
13
22.4852
23
7.62424
33
17.9174
62
44
0
3DFACE
8
0
10
16.0186
20
-13.6831
30
-30.9729
11
23.0775
21
9.44703
31
19.1113
12
22.4852
22
7.62424
32
17.9174
13
14.7927
23
-17.4561
33
-21.4858
62
33
0
3DFACE
8
0
10
45.9788
20
-0.82458
30
86.4911
11
16.0186
21
-13.6831
31
-30.9729
12
14.7927
22
-17.4561
32
-21.4858
13
44.6929
23
-4.78213
33
78.0958
62
22
0
3DFACE
8
0
10
28.1939
20
-22.9494
30
-20.5385
11
45.9788
21
-0.82458
31
86.4911
12
44.6929
22
-4.78213
32
78.0958
13
27.0706
23
-26.4067
33
-11.5445
62
19
0
3DFACE
8
0
10
20.2489
20
8.64359
30
108.81
11
0
21
0
31
103.711
12
0
22
0
32
103.711
13
19.9242
23
6.94161
33
105.672
62
109
0
3DFACE
8
0
10
30.286
20
-14.3104
30
100.356
11
20.2489
21
8.64359
31
108.81
12
19.9242
22
6.94161
32
105.672
13
29.7422
23
-17.1612
33
108.399
62
102
0
3DFACE
8
0
10
30.4594
20
-1.42098
30
91.4404
11
30.286
21
-14.3104
31
100.356
12
29.7422
22
-17.1612
32
108.399
13
30.0758
23
-3.43207
33
88.2949
62
93
0
3DFACE
8
0
10
20.7474
20
11.4382
30
22.3989
11
30.4594
21
-1.42098
31
91.4404
12
30.0758
22
-3.43207
32
88.2949
13
20.1825
23
8.47681
33
19.0018
62
84
0
3DFACE
8
0
10
33.4561
20
-18.8514
30
91.8442
11
20.7474
21
11.4382
31
22.3989
12
20.1825
22
8.47681
32
19.0018
13
32.7178
23
-22.7215
33
103.231
62
74
0
3DFACE
8
0
10
39.4936
20
7.30397
30
67.2797
11
33.4561
21
-18.8514
31
91.8442
12
32.7178
22
-22.7215
32
103.231
13
38.812
23
3.73082
33
57.4488
62
64
0
3DFACE
8
0
10
27.7132
20
2.64967
30
48.4308
11
39.4936
21
7.30397
31
67.2797
12
38.812
22
3.73082
32
57.4488
13
27.4095
23
1.0577
33
49.3442
62
54
0
3DFACE
8
0
10
23.4366
20
11.3297
30
20.5047
11
27.7132
21
2.64967
31
48.4308
12
27.4095
22
1.0577
32
49.3442
13
23.0775
23
9.44703
33
19.1113
62
44
0
3DFACE
8
0
10
16.762
20
-9.78612
30
-39.6369
11
23.4366
21
11.3297
31
20.5047
12
23.0775
22
9.44703
32
19.1113
13
16.0186
23
-13.6831
33
-30.9729
62
33
0
3DFACE
8
0
10
46.7585
20
3.26293
30
93.6899
11
16.762
21
-9.78612
31
-39.6369
12
16.0186
22
-13.6831
32
-30.9729
13
45.9788
23
-0.82458
33
86.4911
62
22
0
3DFACE
8
0
10
28.8751
20
-19.3787
30
-29.2085
11
46.7585
21
3.26293
31
93.6899
12
45.9788
22
-0.82458
32
86.4911
13
28.1939
23
-22.9494
33
-20.5385
62
19
0
ENDSEC
0
EOF
